<?xml version="1.0" encoding="utf-8"?>
<!-- Generator: Adobe Illustrator 19.0.0, SVG Export Plug-In . SVG Version: 6.00 Build 0)  -->
<svg version="1.1" id="Abstract" xmlns="http://www.w3.org/2000/svg" xmlns:xlink="http://www.w3.org/1999/xlink" x="0px" y="0px"
	 viewBox="0 0 138 167.4" style="enable-background:new 0 0 138 167.4;" xml:space="preserve">
<style type="text/css">
	.st0{fill:#EAEBED;}
	.st1{fill:#A8A9AC;}
	.gear-1{
    	transform-origin: 47.4% 34.9%;
		animation: gear-rotate 4s linear infinite;
	}

	.gear-2{
		transform-origin: 17.5% 26.1%;
		animation: gear-rotate 4s linear infinite;
		animation-direction: reverse;
	}

	.gear-3{
	    transform-origin: 78.8% 33.46%;
		animation: gear-rotate 4s linear infinite;
		animation-direction: reverse;
	}

	.gear-4{
		transform-origin: 28.3% 53%;
		animation: gear-rotate 3s linear infinite;
		animation-direction: reverse;
	}

	@keyframes gear-rotate{
		0%{
			transform: rotate(0deg);
		}
		100%{
			transform: rotate(360deg);
		}
	}
</style>
<path id="XMLID_31_" class="st0" d="M98.2,0H16.4C7.4,0,0.1,7.3,0.1,16.3l0,6.7H0l0,126.7c0,9.8,7.9,17.7,17.7,17.7h102.7
	c9.8,0,17.8-8,17.8-17.8L138,35L98.2,0z"/>
<circle id="XMLID_11_" class="st1" cx="65.5" cy="58.5" r="11.8"/>
<path id="XMLID_65_" class="st1 gear-4" d="M51.4,80.8c0,0-1.2-3.2-5.3-5.3c-4.2,4.8-7.8-2.1-7.8-2.1s-5,0.3-7.3,2.4c2.4,9-5.3,6.1-5.3,6.1
	s-1.6,3.5-1.6,7.6c7.4,3,2.3,7.3,2.3,7.3s2.8,4.7,6,5.1c5.4-4.2,7.1,1.8,7.1,1.8s3,0.8,7.4-2.2C45,96.1,52,95.8,52,95.8
	s1.7-2.4,1.7-7.2C48,87.3,51.4,80.8,51.4,80.8z M38.9,95.7c-3.9,0-7.1-3.2-7.1-7.1s3.2-7.1,7.1-7.1c3.9,0,7.1,3.2,7.1,7.1
	S42.8,95.7,38.9,95.7z"/>
<path id="XMLID_92_" class="st1 gear-1" d="M90.9,63.8l-4.5-3.5c0-0.6,0.1-1.2,0.1-1.8c0-1.6-0.2-3.1-0.5-4.6l4-4.1c-0.7-2-1.6-3.8-2.7-5.5
	l-5.6,0.7c-1.4-1.6-3-3-4.8-4.2L76.6,35c-1.8-0.9-3.8-1.5-5.8-2l-3.5,4.5c-0.6,0-1.2-0.1-1.8-0.1c-1.6,0-3.1,0.2-4.6,0.5l-4.1-4
	c-2,0.7-3.8,1.6-5.5,2.7l0.7,5.6c-1.6,1.4-3,3-4.2,4.8l-5.7,0.1c-0.9,1.8-1.5,3.8-2,5.8l4.5,3.5c0,0.6-0.1,1.2-0.1,1.8
	c0,1.6,0.2,3.1,0.5,4.6l-4,4.1c0.7,2,1.6,3.8,2.7,5.5l5.6-0.7c1.4,1.6,3,3,4.8,4.2l0.1,5.7c1.8,0.9,3.8,1.5,5.8,2l3.5-4.5
	c0.6,0,1.2,0.1,1.8,0.1c1.6,0,3.1-0.2,4.6-0.5l4.1,4c2-0.7,3.8-1.6,5.5-2.7L79,74.5c1.6-1.4,3-3,4.2-4.8l5.7-0.1
	C89.8,67.8,90.4,65.8,90.9,63.8z M81.6,58.5c0,8.9-7.2,16.1-16.1,16.1s-16.1-7.2-16.1-16.1s7.2-16.1,16.1-16.1S81.6,49.6,81.6,58.5z
	"/>
<path id="XMLID_106_" class="st1 gear-3" d="M128.5,57.4c0-0.5,0.1-0.9,0.1-1.4c0-1.2-0.1-2.5-0.3-3.6l-4.7,0c-0.5-2.1-1.5-4.1-2.8-5.7
	l3-3.7c-1.1-1.3-2.4-2.4-3.8-3.4l-3.3,3.4c-1.8-1.1-3.8-1.8-6-2.1l-0.5-4.7c-0.5,0-0.9-0.1-1.4-0.1c-1.2,0-2.5,0.1-3.6,0.3l0,4.7
	c-2.1,0.5-4.1,1.5-5.7,2.8l-3.7-3c-1.3,1.1-2.4,2.4-3.4,3.8l3.4,3.3c-1.1,1.8-1.8,3.8-2.1,6l-4.7,0.5c0,0.5-0.1,0.9-0.1,1.4
	c0,1.2,0.1,2.5,0.3,3.6l4.7,0c0.5,2.1,1.5,4.1,2.8,5.7l-3,3.7c1.1,1.3,2.4,2.4,3.8,3.4l3.3-3.4c1.8,1.1,3.8,1.8,6,2.1l0.5,4.7
	c0.5,0,0.9,0.1,1.4,0.1c1.2,0,2.5-0.1,3.6-0.3l0-4.7c2.1-0.5,4.1-1.5,5.7-2.8l3.7,3c1.3-1.1,2.4-2.4,3.4-3.8l-3.4-3.3
	c1.1-1.8,1.8-3.8,2.1-6L128.5,57.4z M108.7,63.7c-4.3,0-7.8-3.5-7.8-7.8s3.5-7.8,7.8-7.8s7.8,3.5,7.8,7.8S113,63.7,108.7,63.7z"/>
<path id="XMLID_93_" class="st1 gear-2" d="M40.6,45.9c0.1-0.7,0.2-1.4,0.2-2.2c0-0.9-0.1-1.8-0.2-2.7l-4.1-0.2c-0.3-1.5-0.9-2.8-1.8-4.1
	l2.7-3.1c-1-1.3-2.2-2.5-3.5-3.4l-3,2.8c-1.2-0.8-2.6-1.3-4.1-1.6l-0.3-4.1c-0.7-0.1-1.4-0.2-2.2-0.2c-0.9,0-1.8,0.1-2.7,0.2
	l-0.2,4.1c-1.5,0.3-2.8,0.9-4.1,1.8L14,30.5c-1.3,1-2.5,2.2-3.4,3.5l2.8,3c-0.8,1.2-1.3,2.6-1.6,4.1l-4.1,0.3
	c-0.1,0.7-0.2,1.4-0.2,2.2c0,0.9,0.1,1.8,0.2,2.7l4.1,0.2c0.3,1.5,0.9,2.8,1.8,4.1l-2.7,3.1c1,1.3,2.2,2.5,3.5,3.4l3-2.8
	c1.2,0.8,2.6,1.3,4.1,1.6l0.3,4.1c0.7,0.1,1.4,0.2,2.2,0.2c0.9,0,1.8-0.1,2.7-0.2L27,56c1.5-0.3,2.8-0.9,4.1-1.8l3.1,2.7
	c1.3-1,2.5-2.2,3.4-3.5l-2.8-3c0.8-1.2,1.3-2.6,1.6-4.1L40.6,45.9z M24.1,53.3c-5.3,0-9.6-4.3-9.6-9.6s4.3-9.6,9.6-9.6
	s9.6,4.3,9.6,9.6S29.4,53.3,24.1,53.3z"/>
<path id="XMLID_12_" class="st1" d="M58.5,131.5h20.8l11.5,17.6c0.9,1.4-0.1,3.3-1.7,3.3H48.8c-1.5,0-2.3-1.6-1.6-2.9L58.5,131.5z"
	/>
<path id="XMLID_22_" class="st1" d="M58.5,131.6h20.7l11.5,17.6c0.9,1.4-0.1,3.3-1.7,3.3H48.9c-1.5,0-2.3-1.6-1.6-2.9L58.5,131.6z"
	/>
<path id="XMLID_61_" class="st1" d="M93.7,147.6l-18-27.7v-17.6c1,0,1.8-0.8,1.8-1.8v-1.1c0-1.3-1.1-2.4-2.4-2.4H63.6
	c-1.4,0-2.5,1.1-2.5,2.5v1c0,0.9,0.6,1.6,1.5,1.8v17.5l-18.3,27.7c-2.3,3.5,0.2,8.2,4.4,8.2h40.5C93.5,155.7,96,151.1,93.7,147.6z
	 M89.2,153.7H49c-2.7,0-4.3-3-2.8-5.3l18.3-27.9V99.5h8.9v21.1L92,148.5C93.5,150.7,91.9,153.7,89.2,153.7z"/>
<path id="XMLID_9_" class="st1" d="M98.2,0L138,35h-25c-8.1,0-14.8-6.6-14.8-14.8V0z"/>
</svg>
