<?xml version="1.0" encoding="utf-8"?>
<!-- Generator: Adobe Illustrator 16.0.0, SVG Export Plug-In . SVG Version: 6.00 Build 0)  -->
<!DOCTYPE svg PUBLIC "-//W3C//DTD SVG 1.1//EN" "http://www.w3.org/Graphics/SVG/1.1/DTD/svg11.dtd">
<svg version="1.1" id="Layer_1" xmlns="http://www.w3.org/2000/svg" xmlns:xlink="http://www.w3.org/1999/xlink" x="0px" y="0px"
	 width="1242px" height="1242px" viewBox="0 0 1242 1242" style="enable-background:new 0 0 1242 1242;" xml:space="preserve">
<style type="text/css">
<![CDATA[
	.st0{clip-path:url(#SVGID_8_);fill:#27AAE1;}
	.st1{clip-path:url(#SVGID_6_);fill:#FFFFFF;}
	.st2{clip-path:url(#SVGID_2_);fill:#73C26F;}
	.st3{clip-path:url(#SVGID_16_);fill:#33BA98;}
	.st4{clip-path:url(#SVGID_6_);fill:#666867;}
	.st5{clip-path:url(#SVGID_10_);fill:#80C67E;}
	.st6{clip-path:url(#SVGID_18_);fill:#FFFFFF;}
	.st7{clip-path:url(#SVGID_4_);fill:#03ACC0;}
	.st8{clip-path:url(#SVGID_2_);fill:#DEDFE0;}
	.st9{clip-path:url(#SVGID_10_);fill:#EAEAEA;}
	.st10{fill:#80C67E;}
	.st11{clip-path:url(#SVGID_10_);fill:#1F2120;}
	.st12{clip-path:url(#SVGID_18_);fill:#33BA98;}
	.st13{clip-path:url(#SVGID_14_);fill:#444445;}
	.st14{fill:#EA7F86;}
	.st15{clip-path:url(#SVGID_4_);fill:#DC3B53;}
	.st16{clip-path:url(#SVGID_8_);fill:#9E1F63;}
	.st17{clip-path:url(#SVGID_4_);fill:#DCEEFA;}
	.st18{clip-path:url(#SVGID_4_);fill:#DEDFE0;}
	.st19{clip-path:url(#SVGID_4_);fill:#444445;}
	.st20{clip-path:url(#SVGID_8_);fill:none;stroke:#000000;stroke-width:3;stroke-miterlimit:10;}
	.st21{clip-path:url(#SVGID_10_);fill:#242424;}
	.st22{clip-path:url(#SVGID_12_);fill:#EF4038;}
	.st23{clip-path:url(#SVGID_20_);fill:none;stroke:#000000;stroke-width:3;stroke-miterlimit:10;}
	.st24{clip-path:url(#SVGID_16_);fill:#444445;}
	.st25{clip-path:url(#SVGID_8_);fill:#00AEEF;}
	.st26{clip-path:url(#SVGID_2_);fill:#EA7F86;}
	.st27{clip-path:url(#SVGID_2_);fill:#EAEAEA;}
	.st28{fill:#F26F70;}
	.st29{fill:#F27278;}
	.st30{clip-path:url(#SVGID_2_);fill:#1F2120;}
	.st31{clip-path:url(#SVGID_4_);fill:#1793A3;}
	.st32{clip-path:url(#SVGID_4_);fill:#E62A51;}
	.st33{clip-path:url(#SVGID_6_);fill:none;stroke:#000000;stroke-width:0.5;stroke-miterlimit:10;}
	.st34{clip-path:url(#SVGID_2_);}
	.st35{clip-path:url(#SVGID_4_);}
	.st36{clip-path:url(#SVGID_8_);}
	.st37{fill:#5FC1C2;}
	.st38{clip-path:url(#SVGID_8_);fill:none;}
	.st39{clip-path:url(#SVGID_10_);fill:#FFC83F;}
	.st40{clip-path:url(#SVGID_10_);fill:#62C7C6;}
	.st41{clip-path:url(#SVGID_12_);fill:#F7ED50;}
	.st42{clip-path:url(#SVGID_4_);fill:#EAEAEA;}
	.st43{clip-path:url(#SVGID_2_);fill:#F26F70;}
	.st44{clip-path:url(#SVGID_2_);fill:#F27278;}
	.st45{clip-path:url(#SVGID_2_);fill:#242424;}
	.st46{clip-path:url(#SVGID_10_);fill:#68BE61;}
	.st47{clip-path:url(#SVGID_4_);fill:#1F2120;}
	.st48{clip-path:url(#SVGID_8_);fill:#414042;}
	.st49{clip-path:url(#SVGID_4_);fill:#EF8222;}
	.st50{fill:#FFC83F;}
	.st51{fill:#FFFFFF;}
	.st52{fill:#626D9D;}
	.st53{fill:#65C2C5;}
	.st54{clip-path:url(#SVGID_6_);fill:#B07765;}
	.st55{clip-path:url(#SVGID_12_);fill:none;stroke:#FFFFFF;stroke-width:0.5;stroke-miterlimit:10;}
	.st56{clip-path:url(#SVGID_10_);fill:#6ABE5D;}
	.st57{fill:#68BE61;}
	.st58{fill:#69BF6C;}
	.st59{clip-path:url(#SVGID_4_);fill:#242424;}
	.st60{clip-path:url(#SVGID_18_);fill:none;stroke:#ED1C24;stroke-width:2;stroke-miterlimit:10;}
	.st61{clip-path:url(#SVGID_12_);fill:#CDECF6;}
	.st62{clip-path:url(#SVGID_6_);fill:#EFB66F;}
	.st63{clip-path:url(#SVGID_2_);fill:#FFC83F;}
	.st64{clip-path:url(#SVGID_2_);fill:#FFFFFF;}
	.st65{clip-path:url(#SVGID_4_);fill:#F6B11A;}
	.st66{clip-path:url(#SVGID_2_);fill:#62C7C6;}
	.st67{clip-path:url(#SVGID_2_);fill:#65C2C5;}
	.st68{fill:none;stroke:#000000;stroke-width:2;stroke-miterlimit:10;}
	.st69{clip-path:url(#SVGID_4_);fill:#C22D40;}
	.st70{clip-path:url(#SVGID_14_);fill:#FFFFFF;}
	.st71{clip-path:url(#SVGID_2_);fill:#69BF6C;}
	.st72{clip-path:url(#SVGID_10_);fill:#73C26F;}
	.st73{clip-path:url(#SVGID_4_);fill:#2A59A7;}
	.st74{clip-path:url(#SVGID_18_);fill:none;stroke:#FFFFFF;stroke-width:5;stroke-miterlimit:10;}
	.st75{fill:#3BA6C3;}
	.st76{clip-path:url(#SVGID_12_);fill:none;stroke:#FFFFFF;stroke-width:2;stroke-miterlimit:10;}
	.st77{clip-path:url(#SVGID_6_);fill:#F1BA66;}
	.st78{fill:#3FB86F;}
	.st79{clip-path:url(#SVGID_2_);fill:#6ABE5D;}
	.st80{clip-path:url(#SVGID_4_);fill:#FFFFFF;}
	.st81{clip-path:url(#SVGID_10_);}
	.st82{clip-path:url(#SVGID_12_);}
	.st83{clip-path:url(#SVGID_10_);fill:#DEDFE0;}
	.st84{clip-path:url(#SVGID_10_);fill:#444445;}
	.st85{clip-path:url(#SVGID_16_);fill:none;stroke:#FFFFFF;stroke-width:5;stroke-miterlimit:10;}
	.st86{clip-path:url(#SVGID_8_);fill:#8DC63F;}
	.st87{clip-path:url(#SVGID_6_);fill:#FDFEFF;}
]]>
</style>
<rect x="301.554" y="290.554" transform="matrix(0.896 0.4441 -0.4441 0.896 339.1312 -214.5917)" class="st78" width="652.225" height="652.225"/>
<g id="lap2">
	<defs>
		<rect id="SVGID_1_" width="1242" height="1242"/>
	</defs>
	<clipPath id="SVGID_2_">
		<use xlink:href="#SVGID_1_"  style="overflow:visible;"/>
	</clipPath>
	<path class="st30" d="M704.536,473.907l-219.908,52.721c-2.277,0.546-4.762-2.868-4.751-6.528l0.221-76.598
		c0.01-3.492,1.435-6.113,3.608-6.634l179.892-43.128c2.137-0.512,4.585,1.148,6.192,4.199l35.905,68.178
		C707.373,469.303,706.768,473.372,704.536,473.907"/>
	<path class="st64" d="M692.882,469.189l-200.685,48.112c-2.078,0.499-4.282-2.36-4.215-5.466l-0.592-65.003
		c0.064-2.963,3.407-5.203,5.389-5.678l164.167-39.357c1.95-0.468,6.504-0.682,7.916,1.882l29.196,58.882
		C695.532,465.239,694.917,468.701,692.882,469.189"/>
	<path class="st8" d="M661.617,395.928l-175.042,42.334c-2.863,0.693-5.745-1.067-6.437-3.93l-28.735-118.811
		c-0.692-2.863,1.067-5.745,3.93-6.437l175.042-42.335c2.863-0.692,5.745,1.067,6.437,3.93l28.735,118.811
		C666.24,392.353,664.479,395.235,661.617,395.928"/>
	<path class="st27" d="M580.421,329.905l-52.175,12.619c-0.805,0.194-1.616-0.301-1.811-1.106l-8.851-36.597
		c-0.194-0.806,0.3-1.616,1.106-1.811l52.175-12.618c0.805-0.195,1.615,0.3,1.81,1.105l8.851,36.597
		C581.721,328.899,581.226,329.709,580.421,329.905"/>
	<path class="st45" d="M613.352,365.072l6.68-1.616c0.582-0.14,1.167,0.217,1.308,0.799l1.478,6.11
		c0.141,0.581-0.216,1.167-0.798,1.308l-6.68,1.615c-0.581,0.141-1.167-0.217-1.308-0.798l-1.477-6.11
		C612.412,365.798,612.77,365.213,613.352,365.072"/>
	<path class="st45" d="M603.235,367.519l6.68-1.616c0.582-0.14,1.167,0.217,1.308,0.799l1.478,6.11
		c0.14,0.581-0.217,1.167-0.799,1.308l-6.68,1.615c-0.581,0.141-1.167-0.217-1.308-0.798l-1.477-6.11
		C602.296,368.245,602.653,367.66,603.235,367.519"/>
	<path class="st45" d="M593.357,369.908l6.68-1.616c0.582-0.14,1.167,0.217,1.308,0.799l1.477,6.11
		c0.141,0.581-0.216,1.167-0.798,1.308l-6.68,1.615c-0.581,0.141-1.167-0.217-1.308-0.798l-1.477-6.11
		C592.418,370.634,592.775,370.049,593.357,369.908"/>
	<path class="st45" d="M583.479,372.297l6.68-1.616c0.582-0.14,1.167,0.217,1.308,0.799l1.478,6.11
		c0.14,0.581-0.217,1.167-0.799,1.308l-6.68,1.615c-0.581,0.141-1.167-0.217-1.308-0.798l-1.477-6.11
		C582.54,373.023,582.896,372.438,583.479,372.297"/>
	<path class="st45" d="M573.505,374.709l6.68-1.616c0.582-0.14,1.167,0.217,1.308,0.799l1.478,6.11
		c0.14,0.581-0.217,1.167-0.799,1.308l-6.68,1.615c-0.581,0.141-1.167-0.217-1.308-0.798l-1.477-6.11
		C572.566,375.435,572.923,374.85,573.505,374.709"/>
	<path class="st45" d="M563.627,377.098l6.68-1.616c0.582-0.14,1.167,0.217,1.308,0.799l1.477,6.11
		c0.141,0.581-0.216,1.167-0.798,1.308l-6.68,1.615c-0.581,0.141-1.167-0.217-1.308-0.798l-1.477-6.11
		C562.688,377.824,563.045,377.239,563.627,377.098"/>
	<path class="st45" d="M553.654,379.51l6.68-1.616c0.582-0.14,1.167,0.217,1.308,0.799l1.478,6.11
		c0.14,0.581-0.217,1.167-0.799,1.308l-6.68,1.615c-0.581,0.141-1.167-0.217-1.308-0.798l-1.477-6.11
		C552.715,380.236,553.072,379.651,553.654,379.51"/>
	<path class="st45" d="M543.775,381.899l6.68-1.616c0.582-0.14,1.167,0.217,1.308,0.799l1.478,6.11
		c0.14,0.581-0.217,1.167-0.799,1.308l-6.68,1.615c-0.581,0.141-1.167-0.217-1.308-0.798l-1.477-6.11
		C542.836,382.625,543.193,382.04,543.775,381.899"/>
	<path class="st45" d="M533.897,384.288l6.68-1.616c0.582-0.14,1.167,0.217,1.308,0.799l1.477,6.11
		c0.141,0.581-0.216,1.167-0.798,1.308l-6.68,1.615c-0.581,0.141-1.167-0.217-1.308-0.798l-1.477-6.11
		C532.958,385.014,533.315,384.429,533.897,384.288"/>
	<path class="st45" d="M523.947,386.695l6.68-1.616c0.582-0.14,1.167,0.217,1.308,0.799l1.478,6.11
		c0.14,0.581-0.217,1.167-0.799,1.308l-6.68,1.615c-0.581,0.141-1.167-0.217-1.308-0.798l-1.477-6.11
		C523.008,387.421,523.365,386.836,523.947,386.695"/>
	<path class="st45" d="M513.95,389.112l6.68-1.616c0.582-0.14,1.167,0.217,1.308,0.799l1.477,6.11
		c0.141,0.581-0.216,1.167-0.798,1.308l-6.68,1.615c-0.581,0.141-1.167-0.217-1.308-0.798l-1.477-6.11
		C513.011,389.838,513.368,389.253,513.95,389.112"/>
	<path class="st45" d="M504.042,391.509l6.68-1.616c0.582-0.14,1.167,0.217,1.308,0.799l1.478,6.11
		c0.14,0.581-0.217,1.167-0.799,1.308l-6.68,1.615c-0.581,0.141-1.167-0.217-1.308-0.798l-1.477-6.11
		C503.103,392.235,503.46,391.65,504.042,391.509"/>
	<path class="st45" d="M494.099,393.914l6.68-1.616c0.582-0.14,1.167,0.217,1.308,0.799l1.477,6.11
		c0.141,0.581-0.216,1.167-0.798,1.308l-6.68,1.615c-0.581,0.141-1.167-0.217-1.308-0.798l-1.477-6.11
		C493.159,394.64,493.517,394.055,494.099,393.914"/>
	<path class="st45" d="M608.621,356.011l6.68-1.616c0.582-0.14,1.167,0.217,1.308,0.799l1.478,6.11
		c0.14,0.581-0.217,1.167-0.799,1.308l-6.68,1.615c-0.581,0.141-1.167-0.217-1.308-0.798l-1.477-6.11
		C607.682,356.737,608.039,356.152,608.621,356.011"/>
	<path class="st45" d="M598.505,358.458l6.68-1.616c0.582-0.14,1.167,0.217,1.308,0.799l1.478,6.11
		c0.14,0.581-0.217,1.167-0.799,1.308l-6.68,1.615c-0.581,0.141-1.167-0.217-1.308-0.798l-1.477-6.11
		C597.566,359.184,597.923,358.599,598.505,358.458"/>
	<path class="st45" d="M588.627,360.847l6.68-1.616c0.582-0.14,1.167,0.217,1.308,0.799l1.478,6.11
		c0.14,0.581-0.217,1.167-0.799,1.308l-6.68,1.615c-0.581,0.141-1.167-0.217-1.308-0.798l-1.477-6.11
		C587.688,361.573,588.045,360.988,588.627,360.847"/>
	<path class="st45" d="M578.749,363.236l6.68-1.616c0.582-0.14,1.167,0.217,1.308,0.799l1.478,6.11
		c0.14,0.581-0.217,1.167-0.799,1.308l-6.68,1.615c-0.581,0.141-1.167-0.217-1.307-0.798l-1.478-6.11
		C577.81,363.962,578.167,363.377,578.749,363.236"/>
	<path class="st45" d="M568.775,365.648l6.68-1.616c0.582-0.14,1.167,0.217,1.308,0.799l1.478,6.11
		c0.14,0.581-0.217,1.167-0.799,1.308l-6.68,1.615c-0.581,0.141-1.167-0.217-1.308-0.798l-1.477-6.11
		C567.836,366.374,568.193,365.789,568.775,365.648"/>
	<path class="st45" d="M558.897,368.037l6.68-1.616c0.582-0.14,1.167,0.217,1.308,0.799l1.478,6.11
		c0.14,0.581-0.217,1.167-0.799,1.308l-6.68,1.615c-0.581,0.141-1.167-0.217-1.308-0.798l-1.477-6.11
		C557.958,368.763,558.315,368.178,558.897,368.037"/>
	<path class="st45" d="M548.923,370.449l6.68-1.616c0.582-0.14,1.167,0.217,1.308,0.799l1.478,6.11
		c0.14,0.581-0.217,1.167-0.799,1.308l-6.68,1.615c-0.581,0.141-1.167-0.217-1.308-0.798l-1.477-6.11
		C547.984,371.175,548.341,370.59,548.923,370.449"/>
	<path class="st45" d="M539.045,372.838l6.68-1.616c0.582-0.14,1.167,0.217,1.308,0.799l1.478,6.11
		c0.14,0.581-0.217,1.167-0.799,1.308l-6.68,1.615c-0.581,0.141-1.167-0.217-1.308-0.798l-1.477-6.11
		C538.106,373.564,538.463,372.979,539.045,372.838"/>
	<path class="st45" d="M529.167,375.228l6.68-1.616c0.582-0.14,1.167,0.217,1.308,0.799l1.478,6.11
		c0.14,0.581-0.217,1.167-0.799,1.308l-6.68,1.615c-0.581,0.141-1.167-0.217-1.308-0.798l-1.477-6.11
		C528.228,375.954,528.585,375.369,529.167,375.228"/>
	<path class="st45" d="M519.217,377.634l6.68-1.616c0.582-0.14,1.167,0.217,1.308,0.799l1.478,6.11
		c0.14,0.581-0.217,1.167-0.799,1.308l-6.68,1.615c-0.581,0.141-1.167-0.217-1.308-0.798l-1.477-6.11
		C518.278,378.36,518.635,377.775,519.217,377.634"/>
	<path class="st45" d="M509.22,380.052l6.68-1.616c0.582-0.14,1.167,0.217,1.308,0.799l1.478,6.11
		c0.14,0.581-0.217,1.167-0.799,1.308l-6.68,1.615c-0.581,0.141-1.167-0.217-1.308-0.798l-1.477-6.11
		C508.281,380.777,508.638,380.192,509.22,380.052"/>
	<path class="st45" d="M601.245,347.439l6.68-1.616c0.582-0.14,1.167,0.217,1.308,0.799l1.478,6.11
		c0.14,0.581-0.217,1.167-0.799,1.308l-6.68,1.615c-0.581,0.141-1.167-0.217-1.308-0.798l-1.477-6.11
		C600.306,348.166,600.663,347.581,601.245,347.439"/>
	<path class="st45" d="M591.129,349.886l6.68-1.616c0.582-0.14,1.167,0.217,1.308,0.799l1.478,6.11
		c0.14,0.581-0.217,1.167-0.799,1.308l-6.68,1.615c-0.581,0.141-1.167-0.217-1.307-0.798l-1.478-6.11
		C590.19,350.612,590.547,350.027,591.129,349.886"/>
	<path class="st45" d="M581.25,352.275l6.68-1.616c0.582-0.14,1.167,0.217,1.308,0.799l1.478,6.11
		c0.14,0.581-0.217,1.167-0.799,1.308l-6.68,1.615c-0.581,0.141-1.167-0.217-1.308-0.798l-1.477-6.11
		C580.312,353.001,580.668,352.417,581.25,352.275"/>
	<path class="st45" d="M571.372,354.665l6.68-1.616c0.582-0.14,1.167,0.217,1.308,0.799l1.478,6.11
		c0.14,0.581-0.217,1.167-0.799,1.308l-6.68,1.615c-0.581,0.141-1.167-0.217-1.308-0.798l-1.477-6.11
		C570.433,355.391,570.79,354.806,571.372,354.665"/>
	<path class="st45" d="M561.398,357.077l6.68-1.616c0.582-0.14,1.167,0.217,1.308,0.799l1.478,6.11
		c0.14,0.581-0.217,1.167-0.799,1.308l-6.68,1.615c-0.581,0.141-1.167-0.217-1.307-0.798l-1.478-6.11
		C560.459,357.803,560.816,357.218,561.398,357.077"/>
	<path class="st45" d="M551.521,359.466l6.68-1.616c0.582-0.14,1.167,0.217,1.308,0.799l1.478,6.11
		c0.14,0.581-0.217,1.167-0.799,1.308l-6.68,1.615c-0.581,0.141-1.167-0.217-1.308-0.798l-1.477-6.11
		C550.581,360.191,550.938,359.606,551.521,359.466"/>
	<path class="st45" d="M541.547,361.878l6.68-1.616c0.582-0.14,1.167,0.217,1.308,0.799l1.478,6.11
		c0.14,0.581-0.217,1.167-0.799,1.308l-6.68,1.615c-0.581,0.141-1.167-0.217-1.308-0.798l-1.477-6.11
		C540.608,362.604,540.965,362.019,541.547,361.878"/>
	<path class="st45" d="M531.668,364.267l6.68-1.616c0.582-0.14,1.167,0.217,1.308,0.799l1.478,6.11
		c0.14,0.581-0.217,1.167-0.799,1.308l-6.68,1.615c-0.581,0.141-1.167-0.217-1.307-0.798l-1.478-6.11
		C530.729,364.993,531.086,364.408,531.668,364.267"/>
	<path class="st45" d="M521.79,366.656l6.68-1.616c0.582-0.14,1.167,0.217,1.308,0.799l1.478,6.11
		c0.14,0.581-0.217,1.167-0.799,1.308l-6.68,1.615c-0.581,0.141-1.167-0.217-1.308-0.798l-1.477-6.11
		C520.851,367.382,521.208,366.797,521.79,366.656"/>
	<path class="st45" d="M511.841,369.062l6.68-1.616c0.582-0.14,1.167,0.217,1.308,0.799l1.478,6.11
		c0.14,0.581-0.217,1.167-0.799,1.308l-6.68,1.615c-0.581,0.141-1.167-0.217-1.308-0.798l-1.477-6.11
		C510.901,369.788,511.259,369.203,511.841,369.062"/>
	<path class="st45" d="M630.518,371.226l6.68-1.616c0.582-0.14,1.167,0.217,1.309,0.799l1.478,6.11
		c0.14,0.581-0.217,1.167-0.799,1.308l-6.68,1.615c-0.581,0.141-1.167-0.217-1.309-0.798l-1.477-6.11
		C629.578,371.952,629.936,371.367,630.518,371.226"/>
	<path class="st45" d="M623.563,362.603l11.28-2.728c0.581-0.141,1.167,0.216,1.309,0.798l1.477,6.11
		c0.142,0.582-0.216,1.167-0.798,1.308l-11.281,2.728c-0.581,0.141-1.167-0.217-1.308-0.798l-1.478-6.11
		C622.623,363.329,622.98,362.744,623.563,362.603"/>
	<path class="st45" d="M618.951,353.513l13.561-3.28c0.581-0.14,1.167,0.217,1.307,0.799l1.479,6.11
		c0.141,0.581-0.217,1.167-0.798,1.308l-13.562,3.279c-0.581,0.141-1.167-0.217-1.308-0.798l-1.477-6.11
		C618.012,354.239,618.369,353.654,618.951,353.513"/>
	<path class="st45" d="M611.523,345.054l18.646-4.509c0.581-0.141,1.167,0.217,1.307,0.798l1.478,6.11
		c0.142,0.582-0.217,1.167-0.798,1.308l-18.645,4.509c-0.581,0.141-1.167-0.217-1.308-0.798l-1.477-6.11
		C610.584,345.78,610.941,345.195,611.523,345.054"/>
	<path class="st45" d="M615.939,332.123l11.518-2.786c0.582-0.14,1.167,0.217,1.308,0.799l1.8,7.44
		c0.141,0.581-0.217,1.167-0.799,1.307l-11.518,2.786c-0.582,0.141-1.167-0.217-1.308-0.798l-1.799-7.44
		C615,332.849,615.357,332.264,615.939,332.123"/>
	<path class="st45" d="M603.354,335.167l9.292-2.247c0.582-0.141,1.167,0.216,1.308,0.798l1.799,7.44
		c0.141,0.582-0.217,1.167-0.798,1.308l-9.292,2.247c-0.582,0.141-1.167-0.217-1.308-0.798l-1.799-7.44
		C602.415,335.893,602.771,335.308,603.354,335.167"/>
	<path class="st45" d="M588.679,338.716l11.453-2.77c0.582-0.141,1.167,0.217,1.308,0.798l1.799,7.44
		c0.141,0.582-0.217,1.167-0.798,1.308l-11.453,2.77c-0.582,0.141-1.167-0.217-1.308-0.798l-1.799-7.44
		C587.739,339.441,588.097,338.856,588.679,338.716"/>
	<path class="st45" d="M538.859,350.765l46.3-11.198c0.582-0.141,1.167,0.217,1.308,0.798l1.799,7.44
		c0.141,0.582-0.216,1.167-0.798,1.308l-46.3,11.198c-0.582,0.141-1.167-0.217-1.308-0.798l-1.799-7.44
		C537.92,351.491,538.277,350.906,538.859,350.765"/>
	<path class="st45" d="M526.227,353.82l9.435-2.282c0.581-0.14,1.167,0.217,1.307,0.799l1.8,7.44
		c0.14,0.581-0.217,1.167-0.799,1.307l-9.434,2.282c-0.582,0.141-1.167-0.217-1.308-0.798l-1.799-7.44
		C525.287,354.546,525.645,353.961,526.227,353.82"/>
	<path class="st45" d="M516.348,356.209l6.49-1.57c0.582-0.14,1.167,0.217,1.308,0.799l1.799,7.44
		c0.141,0.581-0.217,1.167-0.798,1.307l-6.49,1.57c-0.582,0.141-1.167-0.217-1.308-0.798l-1.799-7.44
		C515.409,356.935,515.766,356.35,516.348,356.209"/>
	<path class="st45" d="M506.2,358.663l7.219-1.746c0.38-0.092,0.763,0.142,0.855,0.522l0.821,3.396
		c0.092,0.38-0.141,0.763-0.521,0.855l-7.22,1.746c-0.38,0.092-0.763-0.142-0.855-0.522l-0.821-3.396
		C505.586,359.138,505.82,358.755,506.2,358.663"/>
	<path class="st45" d="M486.538,363.418l7.219-1.746c0.38-0.092,0.763,0.142,0.855,0.522l0.821,3.396
		c0.092,0.38-0.141,0.763-0.522,0.854l-7.219,1.746c-0.38,0.092-0.763-0.142-0.855-0.522l-0.821-3.396
		C485.924,363.894,486.158,363.511,486.538,363.418"/>
	<path class="st45" d="M496.387,361.037l7.219-1.746c0.38-0.092,0.763,0.142,0.855,0.522l0.821,3.396
		c0.092,0.38-0.141,0.763-0.522,0.855l-7.219,1.746c-0.38,0.092-0.763-0.142-0.855-0.522l-0.821-3.396
		C495.773,361.512,496.007,361.128,496.387,361.037"/>
	<path class="st45" d="M497.616,366.118l7.219-1.746c0.38-0.092,0.763,0.142,0.855,0.522l0.821,3.396
		c0.092,0.38-0.141,0.763-0.522,0.855l-7.219,1.746c-0.38,0.092-0.763-0.142-0.855-0.522l-0.821-3.396
		C497.002,366.593,497.236,366.21,497.616,366.118"/>
	<path class="st45" d="M620.402,373.672l6.68-1.616c0.582-0.14,1.167,0.217,1.308,0.799l1.478,6.11
		c0.141,0.581-0.217,1.167-0.799,1.308l-6.68,1.615c-0.581,0.141-1.167-0.217-1.308-0.798l-1.478-6.11
		C619.463,374.398,619.82,373.813,620.402,373.672"/>
	<path class="st45" d="M610.523,376.062l6.68-1.616c0.582-0.14,1.167,0.217,1.308,0.799l1.478,6.11
		c0.14,0.581-0.217,1.167-0.799,1.308l-6.68,1.615c-0.581,0.141-1.167-0.217-1.308-0.798l-1.477-6.11
		C609.584,376.788,609.941,376.203,610.523,376.062"/>
	<path class="st45" d="M600.645,378.451l6.68-1.616c0.582-0.14,1.167,0.217,1.308,0.799l1.478,6.11
		c0.14,0.581-0.217,1.167-0.799,1.308l-6.68,1.615c-0.581,0.141-1.167-0.217-1.307-0.798l-1.478-6.11
		C599.706,379.177,600.063,378.592,600.645,378.451"/>
	<path class="st45" d="M590.671,380.863l6.68-1.616c0.582-0.14,1.167,0.217,1.308,0.799l1.478,6.11
		c0.14,0.581-0.217,1.167-0.799,1.308l-6.68,1.615c-0.581,0.141-1.167-0.217-1.308-0.798l-1.477-6.11
		C589.732,381.589,590.089,381.004,590.671,380.863"/>
	<path class="st45" d="M580.793,383.252l6.68-1.616c0.582-0.14,1.167,0.217,1.308,0.799l1.478,6.11
		c0.14,0.581-0.217,1.167-0.799,1.308l-6.68,1.615c-0.581,0.141-1.167-0.217-1.308-0.798l-1.477-6.11
		C579.854,383.978,580.211,383.393,580.793,383.252"/>
	<path class="st45" d="M570.82,385.664l6.68-1.616c0.582-0.14,1.167,0.217,1.308,0.799l1.478,6.11
		c0.14,0.581-0.217,1.167-0.799,1.308l-6.68,1.615c-0.581,0.141-1.167-0.217-1.308-0.798l-1.477-6.11
		C569.881,386.39,570.238,385.805,570.82,385.664"/>
	<path class="st45" d="M560.941,388.053l6.68-1.616c0.582-0.14,1.167,0.217,1.308,0.799l1.478,6.11
		c0.14,0.581-0.217,1.167-0.799,1.308l-6.68,1.615c-0.581,0.141-1.167-0.217-1.308-0.798l-1.477-6.11
		C560.002,388.779,560.359,388.194,560.941,388.053"/>
	<path class="st45" d="M551.063,390.442l6.68-1.616c0.582-0.14,1.167,0.217,1.308,0.799l1.478,6.11
		c0.14,0.581-0.217,1.167-0.799,1.308l-6.68,1.615c-0.581,0.141-1.167-0.217-1.308-0.798l-1.477-6.11
		C550.124,391.168,550.481,390.583,551.063,390.442"/>
	<path class="st45" d="M541.113,392.848l6.68-1.616c0.582-0.14,1.167,0.217,1.308,0.799l1.478,6.11
		c0.14,0.581-0.217,1.167-0.799,1.308l-6.68,1.615c-0.581,0.141-1.167-0.217-1.308-0.798l-1.477-6.11
		C540.174,393.574,540.531,392.989,541.113,392.848"/>
	<path class="st45" d="M531.116,395.266l6.68-1.616c0.582-0.14,1.167,0.217,1.308,0.799l1.478,6.11
		c0.14,0.581-0.217,1.167-0.799,1.308l-6.68,1.615c-0.581,0.141-1.167-0.217-1.308-0.798l-1.477-6.11
		C530.177,395.992,530.534,395.407,531.116,395.266"/>
	<path class="st45" d="M521.208,397.663l6.68-1.616c0.582-0.14,1.167,0.217,1.308,0.799l1.478,6.11
		c0.14,0.581-0.217,1.167-0.799,1.308l-6.68,1.615c-0.581,0.141-1.167-0.217-1.308-0.798l-1.477-6.11
		C520.27,398.389,520.626,397.804,521.208,397.663"/>
	<path class="st45" d="M511.265,400.067l6.68-1.616c0.582-0.14,1.167,0.217,1.308,0.799l1.478,6.11
		c0.14,0.581-0.217,1.167-0.799,1.308l-6.68,1.615c-0.581,0.141-1.167-0.217-1.308-0.798l-1.477-6.11
		C510.326,400.793,510.683,400.208,511.265,400.067"/>
	<path class="st45" d="M496.453,403.649l11.512-2.784c0.582-0.141,1.167,0.216,1.308,0.798l1.478,6.11
		c0.14,0.582-0.217,1.167-0.798,1.308l-11.513,2.784c-0.581,0.141-1.167-0.217-1.308-0.798l-1.477-6.11
		C495.514,404.375,495.871,403.791,496.453,403.649"/>
	<path class="st45" d="M491.813,384.463l13.946-3.373c0.582-0.141,1.167,0.217,1.308,0.798l1.478,6.111
		c0.14,0.581-0.217,1.167-0.798,1.307l-13.947,3.373c-0.581,0.141-1.167-0.217-1.308-0.798l-1.477-6.11
		C490.874,385.189,491.23,384.604,491.813,384.463"/>
	<path class="st45" d="M489.423,374.584l18.886-4.568c0.581-0.14,1.167,0.217,1.307,0.799l1.478,6.11
		c0.141,0.582-0.217,1.167-0.798,1.308l-18.886,4.567c-0.581,0.141-1.167-0.217-1.308-0.798l-1.477-6.11
		C488.484,375.311,488.841,374.726,489.423,374.584"/>
	<path class="st45" d="M632.482,380.98l6.981-1.688c0.582-0.141,1.167,0.216,1.308,0.798l0.794,3.284
		c0.142,0.582-0.217,1.167-0.798,1.308l-6.98,1.688c-0.582,0.141-1.167-0.216-1.309-0.798l-0.794-3.284
		C631.544,381.707,631.9,381.122,632.482,380.98"/>
	<path class="st45" d="M622.021,383.511l6.98-1.688c0.582-0.141,1.167,0.216,1.309,0.798l0.794,3.284
		c0.141,0.582-0.218,1.167-0.799,1.308l-6.98,1.688c-0.582,0.141-1.167-0.216-1.308-0.798l-0.794-3.284
		C621.081,384.237,621.438,383.652,622.021,383.511"/>
	<path class="st45" d="M611.803,385.982l6.981-1.688c0.582-0.141,1.167,0.216,1.308,0.798l0.794,3.284
		c0.141,0.582-0.217,1.167-0.798,1.308l-6.981,1.688c-0.582,0.141-1.167-0.216-1.308-0.798l-0.794-3.284
		C610.864,386.708,611.221,386.123,611.803,385.982"/>
	<path class="st45" d="M601.586,388.453l6.981-1.688c0.582-0.141,1.167,0.216,1.308,0.798l0.794,3.284
		c0.141,0.582-0.217,1.167-0.798,1.308l-6.981,1.688c-0.582,0.141-1.167-0.216-1.308-0.798l-0.794-3.284
		C600.647,389.179,601.004,388.594,601.586,388.453"/>
	<path class="st45" d="M591.271,390.947l6.981-1.688c0.582-0.141,1.167,0.216,1.308,0.798l0.794,3.284
		c0.141,0.582-0.217,1.167-0.798,1.308l-6.981,1.688c-0.582,0.141-1.167-0.216-1.308-0.798l-0.794-3.284
		C590.333,391.673,590.689,391.088,591.271,390.947"/>
	<path class="st45" d="M581.055,393.418l6.981-1.688c0.582-0.141,1.167,0.216,1.308,0.798l0.794,3.284
		c0.141,0.582-0.217,1.167-0.798,1.308l-6.981,1.688c-0.582,0.141-1.167-0.216-1.308-0.798l-0.794-3.284
		C580.116,394.145,580.473,393.56,581.055,393.418"/>
	<path class="st45" d="M570.739,395.913l6.981-1.688c0.582-0.141,1.167,0.216,1.308,0.798l0.794,3.284
		c0.141,0.582-0.217,1.167-0.798,1.308l-6.981,1.688c-0.582,0.141-1.167-0.216-1.308-0.798l-0.794-3.284
		C569.8,396.639,570.157,396.054,570.739,395.913"/>
	<path class="st45" d="M560.522,398.384l6.981-1.688c0.582-0.141,1.167,0.216,1.308,0.798l0.794,3.284
		c0.141,0.582-0.217,1.167-0.798,1.308l-6.981,1.688c-0.582,0.141-1.167-0.216-1.308-0.798l-0.794-3.284
		C559.583,399.11,559.94,398.525,560.522,398.384"/>
	<path class="st45" d="M550.306,400.855l6.981-1.688c0.582-0.141,1.167,0.216,1.308,0.798l0.794,3.284
		c0.141,0.582-0.217,1.167-0.798,1.308l-6.981,1.688c-0.582,0.141-1.167-0.216-1.308-0.798l-0.794-3.284
		C549.367,401.581,549.724,400.996,550.306,400.855"/>
	<path class="st45" d="M540.015,403.344l6.981-1.688c0.582-0.141,1.167,0.216,1.308,0.798l0.794,3.284
		c0.141,0.582-0.217,1.167-0.798,1.308l-6.981,1.688c-0.582,0.141-1.167-0.216-1.308-0.798l-0.794-3.284
		C539.076,404.07,539.433,403.485,540.015,403.344"/>
	<path class="st45" d="M529.676,405.845l6.981-1.688c0.582-0.141,1.167,0.216,1.308,0.798l0.794,3.284
		c0.141,0.582-0.217,1.167-0.798,1.308l-6.981,1.688c-0.582,0.141-1.167-0.216-1.308-0.798l-0.794-3.284
		C528.737,406.571,529.094,405.986,529.676,405.845"/>
	<path class="st45" d="M519.428,408.323l6.981-1.688c0.582-0.141,1.167,0.216,1.308,0.798l0.794,3.284
		c0.141,0.582-0.217,1.167-0.798,1.308l-6.981,1.688c-0.582,0.141-1.167-0.216-1.308-0.798l-0.794-3.284
		C518.489,409.049,518.846,408.464,519.428,408.323"/>
	<path class="st45" d="M509.144,410.811l6.981-1.688c0.582-0.141,1.167,0.216,1.308,0.798l0.794,3.284
		c0.141,0.582-0.217,1.167-0.798,1.308l-6.981,1.688c-0.582,0.141-1.167-0.216-1.308-0.798l-0.794-3.284
		C508.205,411.536,508.562,410.951,509.144,410.811"/>
	<path class="st45" d="M498.98,413.269l6.981-1.688c0.582-0.141,1.167,0.216,1.308,0.798l0.794,3.284
		c0.141,0.582-0.217,1.167-0.798,1.308l-6.981,1.688c-0.582,0.141-1.167-0.216-1.308-0.798l-0.794-3.284
		C498.042,413.994,498.398,413.409,498.98,413.269"/>
	
		<rect x="650.729" y="463.613" transform="matrix(-0.9728 0.2318 -0.2318 -0.9728 1424.0541 765.4288)" class="st63" width="32.673" height="5.501"/>
	
		<rect x="554.288" y="484.888" transform="matrix(-0.9728 0.2318 -0.2318 -0.9728 1252.8232 828.0917)" class="st44" width="46.96" height="5.502"/>
	
		<rect x="618.975" y="460.898" transform="matrix(-0.9728 0.2318 -0.2318 -0.9728 1355.007 768.1035)" class="st43" width="26.817" height="5.501"/>
	
		<rect x="557.276" y="472.43" transform="matrix(-0.9728 0.2318 -0.2318 -0.9728 1262.189 802.0776)" class="st63" width="53.407" height="5.501"/>
	
		<rect x="642.758" y="444.786" transform="matrix(-0.9728 0.2318 -0.2318 -0.9728 1402.0486 730.3557)" class="st63" width="30.727" height="5.501"/>
	
		<rect x="607.99" y="443.699" transform="matrix(-0.9728 0.2318 -0.2318 -0.9728 1322.0209 737.5828)" class="st67" width="19.386" height="5.501"/>
	
		<rect x="515.492" y="462.453" transform="matrix(-0.9728 0.2318 -0.2318 -0.9728 1171.0881 792.8236)" class="st79" width="46.96" height="5.501"/>
	
		<rect x="601.406" y="430.61" transform="matrix(-0.9728 0.2318 -0.2318 -0.9728 1350.2429 708.0887)" class="st66" width="64.241" height="5.501"/>
	<g id="group3lines" class="st34">
		
			<rect x="608.765" y="472.944" transform="matrix(-0.9728 0.2318 -0.2318 -0.9728 1348.9573 792.901)" class="st37" width="38.27" height="5.502"/>
		
			<rect x="654.492" y="452.833" transform="matrix(-0.9728 0.2318 -0.2318 -0.9728 1419.915 744.3461)" class="st57" width="23.479" height="5.502"/>
		
			<rect x="606.425" y="453.845" transform="matrix(-0.9728 0.2318 -0.2318 -0.9728 1329.1418 757.0339)" class="st10" width="27.349" height="5.502"/>
		
			<rect x="632.343" y="435.722" transform="matrix(-0.9728 0.2318 -0.2318 -0.9728 1386.2256 714.0839)" class="st50" width="37.645" height="5.501"/>
		
			<rect x="564.811" y="451.863" transform="matrix(-0.9728 0.2318 -0.2318 -0.9728 1256.3242 761.6226)" class="st50" width="37.221" height="5.502"/>
		
			<rect x="569.283" y="434.614" transform="matrix(-0.9728 0.2318 -0.2318 -0.9728 1246.4026 728.3071)" class="st50" width="22.278" height="5.501"/>
		
			<rect x="611.546" y="412.622" transform="matrix(-0.9728 0.2318 -0.2318 -0.9728 1349.0342 672.2483)" class="st50" width="46.959" height="5.502"/>
	</g>
	
		<rect x="559.016" y="425.138" transform="matrix(-0.9728 0.2318 -0.2318 -0.9728 1248.3049 709.1142)" class="st71" width="46.959" height="5.502"/>
	
		<rect x="546.371" y="440.604" transform="matrix(-0.9728 0.2318 -0.2318 -0.9728 1198.1877 745.9525)" class="st2" width="17.816" height="5.501"/>
	
		<rect x="600.957" y="422.249" transform="matrix(-0.9728 0.2318 -0.2318 -0.9728 1345.9199 691.8693)" class="st26" width="62.72" height="5.502"/>
</g>
<g id="lap3">
	<defs>
		<rect id="SVGID_3_" width="1242" height="1242"/>
	</defs>
	<clipPath id="SVGID_4_">
		<use xlink:href="#SVGID_3_"  style="overflow:visible;"/>
	</clipPath>
	<path class="st47" d="M662.314,736.446l105.659-199.938c1.094-2.07,5.299-1.681,8.04,0.744l57.367,50.758
		c2.615,2.314,3.642,5.115,2.598,7.09l-86.433,163.556c-1.026,1.943-3.891,2.686-7.242,1.876l-74.906-18.069
		C663.897,741.618,661.242,738.476,662.314,736.446"/>
	<path class="st19" d="M673.555,730.812l96.423-182.46c0.998-1.889,4.6-1.656,6.888,0.446l49.199,42.489
		c2.182,2.005,1.655,5.994,0.703,7.796l-78.877,149.258c-0.938,1.773-3.784,5.334-6.643,4.701l-63.495-16.97
		C674.77,735.412,672.576,732.664,673.555,730.812"/>
	<path class="st18" d="M749.212,755.725l83.825-159.39c1.371-2.607,4.596-3.609,7.203-2.238l108.187,56.897
		c2.607,1.371,3.609,4.596,2.238,7.202L866.84,817.587c-1.371,2.606-4.596,3.608-7.203,2.237L751.45,762.928
		C748.843,761.557,747.841,758.332,749.212,755.725"/>
	<path class="st42" d="M852.413,738.366l24.986-47.51c0.385-0.733,1.292-1.016,2.025-0.629l33.325,17.525
		c0.733,0.387,1.015,1.293,0.629,2.026l-24.986,47.509c-0.385,0.734-1.291,1.015-2.024,0.63l-33.326-17.525
		C852.309,740.006,852.027,739.1,852.413,738.366"/>
	<path class="st59" d="M804.258,739.864l-3.199,6.083c-0.278,0.529-0.934,0.733-1.463,0.454l-5.563-2.926
		c-0.529-0.278-0.733-0.934-0.455-1.464l3.199-6.082c0.278-0.529,0.934-0.733,1.464-0.454l5.563,2.926
		C804.333,738.68,804.536,739.334,804.258,739.864"/>
	<path class="st59" d="M809.103,730.653l-3.199,6.083c-0.278,0.528-0.934,0.732-1.463,0.453l-5.564-2.926
		c-0.528-0.277-0.732-0.933-0.454-1.463l3.198-6.083c0.279-0.529,0.935-0.732,1.464-0.454l5.563,2.926
		C809.178,729.468,809.382,730.123,809.103,730.653"/>
	<path class="st59" d="M813.833,721.658l-3.199,6.083c-0.278,0.528-0.934,0.732-1.463,0.454l-5.563-2.927
		c-0.529-0.277-0.733-0.933-0.454-1.463l3.198-6.083c0.278-0.529,0.934-0.732,1.464-0.454l5.563,2.927
		C813.908,720.473,814.112,721.128,813.833,721.658"/>
	<path class="st59" d="M818.563,712.663l-3.199,6.083c-0.278,0.528-0.934,0.732-1.463,0.454l-5.563-2.927
		c-0.529-0.277-0.733-0.933-0.454-1.463l3.198-6.083c0.278-0.528,0.934-0.732,1.464-0.454l5.563,2.927
		C818.639,711.478,818.843,712.133,818.563,712.663"/>
	<path class="st59" d="M823.34,703.581l-3.199,6.083c-0.278,0.529-0.934,0.733-1.463,0.454l-5.564-2.926
		c-0.528-0.278-0.732-0.934-0.453-1.463l3.198-6.083c0.278-0.529,0.934-0.733,1.463-0.454l5.563,2.926
		C823.415,702.396,823.619,703.051,823.34,703.581"/>
	<path class="st59" d="M828.07,694.586l-3.199,6.083c-0.278,0.529-0.934,0.733-1.463,0.454l-5.563-2.926
		c-0.529-0.278-0.733-0.934-0.454-1.463l3.197-6.083c0.279-0.529,0.935-0.733,1.465-0.454l5.563,2.926
		C828.146,693.401,828.35,694.057,828.07,694.586"/>
	<path class="st59" d="M832.847,685.505l-3.199,6.083c-0.278,0.528-0.935,0.732-1.463,0.454l-5.564-2.927
		c-0.528-0.277-0.732-0.933-0.454-1.463l3.199-6.083c0.278-0.528,0.934-0.732,1.463-0.454l5.563,2.927
		C832.921,684.319,833.125,684.975,832.847,685.505"/>
	<path class="st59" d="M837.577,676.51l-3.199,6.083c-0.279,0.528-0.934,0.732-1.463,0.454l-5.563-2.927
		c-0.529-0.277-0.733-0.933-0.454-1.463l3.197-6.083c0.279-0.528,0.935-0.732,1.464-0.454l5.563,2.927
		C837.652,675.324,837.856,675.979,837.577,676.51"/>
	<path class="st59" d="M842.308,667.515l-3.199,6.083c-0.277,0.528-0.934,0.732-1.463,0.454l-5.563-2.927
		c-0.529-0.277-0.733-0.933-0.454-1.463l3.198-6.083c0.278-0.528,0.934-0.732,1.464-0.454l5.563,2.927
		C842.383,666.329,842.587,666.984,842.308,667.515"/>
	<path class="st59" d="M847.072,658.454l-3.199,6.083c-0.277,0.529-0.934,0.733-1.463,0.454l-5.563-2.926
		c-0.529-0.278-0.733-0.933-0.454-1.463l3.199-6.083c0.277-0.529,0.933-0.733,1.463-0.454l5.563,2.926
		C847.147,657.27,847.352,657.925,847.072,658.454"/>
	<path class="st59" d="M851.86,649.352l-3.199,6.083c-0.278,0.528-0.935,0.732-1.463,0.454l-5.564-2.927
		c-0.529-0.277-0.733-0.933-0.454-1.463l3.199-6.083c0.278-0.529,0.933-0.732,1.463-0.454l5.563,2.927
		C851.935,648.166,852.139,648.821,851.86,649.352"/>
	<path class="st59" d="M856.604,640.329l-3.199,6.083c-0.278,0.529-0.934,0.733-1.463,0.454l-5.563-2.926
		c-0.529-0.278-0.733-0.934-0.454-1.463l3.198-6.083c0.278-0.529,0.934-0.733,1.464-0.454l5.563,2.926
		C856.68,639.145,856.883,639.799,856.604,640.329"/>
	<path class="st59" d="M861.366,631.274l-3.198,6.083c-0.278,0.529-0.935,0.733-1.464,0.454l-5.563-2.926
		c-0.529-0.278-0.733-0.933-0.454-1.463l3.199-6.083c0.278-0.529,0.933-0.733,1.463-0.454l5.563,2.926
		C861.441,630.09,861.646,630.744,861.366,631.274"/>
	<path class="st59" d="M814.186,742.297l-3.199,6.083c-0.279,0.529-0.934,0.733-1.463,0.454l-5.564-2.926
		c-0.528-0.278-0.732-0.934-0.453-1.463l3.197-6.083c0.279-0.529,0.935-0.733,1.465-0.454l5.563,2.926
		C814.261,741.112,814.465,741.768,814.186,742.297"/>
	<path class="st59" d="M819.029,733.086l-3.198,6.083c-0.278,0.529-0.935,0.732-1.463,0.454l-5.564-2.926
		c-0.529-0.278-0.733-0.934-0.454-1.464l3.199-6.083c0.278-0.528,0.933-0.732,1.463-0.453l5.563,2.926
		C819.104,731.9,819.309,732.556,819.029,733.086"/>
	<path class="st59" d="M823.761,724.091l-3.199,6.083c-0.279,0.529-0.935,0.733-1.463,0.454l-5.564-2.926
		c-0.528-0.278-0.732-0.934-0.454-1.463l3.198-6.083c0.279-0.529,0.934-0.733,1.464-0.454l5.563,2.926
		C823.835,722.906,824.039,723.561,823.761,724.091"/>
	<path class="st59" d="M828.491,715.096l-3.199,6.083c-0.278,0.529-0.934,0.733-1.463,0.454l-5.564-2.926
		c-0.528-0.278-0.732-0.934-0.454-1.463l3.198-6.083c0.279-0.529,0.935-0.733,1.464-0.454l5.563,2.926
		C828.566,713.911,828.77,714.565,828.491,715.096"/>
	<path class="st59" d="M833.268,706.015l-3.199,6.083c-0.279,0.528-0.935,0.732-1.463,0.453l-5.564-2.926
		c-0.529-0.277-0.732-0.933-0.454-1.463l3.198-6.083c0.279-0.529,0.934-0.732,1.464-0.454l5.563,2.926
		C833.342,704.829,833.546,705.484,833.268,706.015"/>
	<path class="st59" d="M837.998,697.019l-3.199,6.083c-0.278,0.529-0.935,0.733-1.463,0.454l-5.564-2.926
		c-0.529-0.278-0.732-0.933-0.454-1.463l3.198-6.083c0.279-0.529,0.934-0.733,1.464-0.454l5.563,2.926
		C838.072,695.834,838.276,696.489,837.998,697.019"/>
	<path class="st59" d="M842.773,687.938l-3.198,6.083c-0.279,0.529-0.935,0.733-1.463,0.454l-5.564-2.926
		c-0.529-0.278-0.733-0.934-0.454-1.463l3.198-6.083c0.279-0.529,0.934-0.733,1.464-0.454l5.563,2.926
		C842.849,686.753,843.053,687.407,842.773,687.938"/>
	<path class="st59" d="M847.505,678.942l-3.199,6.083c-0.278,0.529-0.935,0.733-1.463,0.454l-5.564-2.926
		c-0.528-0.278-0.732-0.934-0.454-1.463l3.198-6.083c0.279-0.529,0.934-0.733,1.464-0.454l5.563,2.926
		C847.579,677.758,847.783,678.412,847.505,678.942"/>
	<path class="st59" d="M852.235,669.947l-3.199,6.083c-0.278,0.529-0.935,0.733-1.463,0.454l-5.564-2.926
		c-0.528-0.278-0.732-0.934-0.454-1.463l3.199-6.083c0.278-0.529,0.933-0.733,1.463-0.454l5.563,2.926
		C852.31,668.763,852.514,669.417,852.235,669.947"/>
	<path class="st59" d="M857,660.888l-3.199,6.083c-0.279,0.528-0.934,0.732-1.463,0.454l-5.564-2.927
		c-0.528-0.277-0.732-0.933-0.454-1.463l3.198-6.083c0.279-0.528,0.935-0.732,1.464-0.454l5.563,2.927
		C857.075,659.702,857.279,660.357,857,660.888"/>
	<path class="st59" d="M861.787,651.784l-3.199,6.083c-0.278,0.529-0.934,0.733-1.463,0.454l-5.563-2.926
		c-0.529-0.278-0.733-0.934-0.454-1.463l3.198-6.083c0.278-0.529,0.934-0.733,1.464-0.454l5.563,2.926
		C861.862,650.6,862.066,651.254,861.787,651.784"/>
	<path class="st59" d="M825.493,742.42l-3.198,6.083c-0.278,0.529-0.935,0.733-1.464,0.454l-5.563-2.926
		c-0.529-0.278-0.733-0.934-0.454-1.463l3.199-6.083c0.278-0.529,0.933-0.733,1.463-0.454l5.563,2.926
		C825.568,741.235,825.772,741.89,825.493,742.42"/>
	<path class="st59" d="M830.338,733.209l-3.199,6.083c-0.279,0.528-0.934,0.732-1.463,0.454l-5.564-2.927
		c-0.528-0.277-0.732-0.933-0.453-1.463l3.197-6.083c0.279-0.529,0.935-0.732,1.465-0.454l5.563,2.927
		C830.413,732.023,830.617,732.679,830.338,733.209"/>
	<path class="st59" d="M835.068,724.214l-3.199,6.083c-0.277,0.528-0.934,0.732-1.463,0.454l-5.563-2.927
		c-0.529-0.277-0.733-0.933-0.454-1.463l3.197-6.083c0.279-0.528,0.935-0.732,1.465-0.454l5.563,2.927
		C835.144,723.028,835.348,723.684,835.068,724.214"/>
	<path class="st59" d="M839.799,715.219l-3.199,6.083c-0.277,0.528-0.934,0.732-1.463,0.454l-5.563-2.927
		c-0.529-0.277-0.733-0.933-0.454-1.463l3.199-6.083c0.277-0.529,0.933-0.732,1.463-0.454l5.563,2.927
		C839.874,714.033,840.078,714.688,839.799,715.219"/>
	<path class="st59" d="M844.575,706.137l-3.199,6.083c-0.278,0.529-0.934,0.733-1.463,0.454l-5.564-2.926
		c-0.528-0.278-0.732-0.934-0.454-1.463l3.198-6.083c0.279-0.529,0.935-0.733,1.464-0.454l5.563,2.926
		C844.65,704.952,844.854,705.606,844.575,706.137"/>
	<path class="st59" d="M849.306,697.142l-3.199,6.083c-0.277,0.529-0.934,0.733-1.463,0.454l-5.563-2.926
		c-0.529-0.278-0.733-0.933-0.454-1.463l3.198-6.083c0.278-0.529,0.934-0.733,1.464-0.454l5.563,2.926
		C849.381,695.957,849.585,696.611,849.306,697.142"/>
	<path class="st59" d="M854.082,688.061l-3.199,6.083c-0.278,0.528-0.934,0.732-1.463,0.454l-5.564-2.927
		c-0.528-0.277-0.732-0.933-0.454-1.463l3.198-6.083c0.279-0.529,0.935-0.732,1.464-0.454l5.563,2.927
		C854.156,686.875,854.36,687.53,854.082,688.061"/>
	<path class="st59" d="M858.813,679.065l-3.199,6.083c-0.278,0.528-0.934,0.732-1.463,0.454l-5.564-2.927
		c-0.528-0.277-0.732-0.933-0.453-1.463l3.198-6.083c0.278-0.528,0.934-0.732,1.463-0.454l5.563,2.927
		C858.888,677.88,859.092,678.535,858.813,679.065"/>
	<path class="st59" d="M863.543,670.07l-3.199,6.083c-0.278,0.529-0.934,0.732-1.463,0.454l-5.563-2.926
		c-0.529-0.278-0.733-0.934-0.454-1.464l3.197-6.083c0.279-0.528,0.935-0.732,1.465-0.453l5.563,2.926
		C863.618,668.885,863.822,669.54,863.543,670.07"/>
	<path class="st59" d="M868.308,661.01l-3.199,6.083c-0.277,0.529-0.934,0.733-1.463,0.454l-5.563-2.926
		c-0.529-0.278-0.733-0.933-0.454-1.463l3.199-6.083c0.277-0.529,0.933-0.733,1.463-0.454l5.563,2.926
		C868.383,659.825,868.587,660.48,868.308,661.01"/>
	<path class="st59" d="M788.3,748.689l-3.199,6.083c-0.279,0.528-0.934,0.732-1.463,0.453l-5.564-2.926
		c-0.528-0.277-0.732-0.933-0.454-1.463l3.198-6.083c0.279-0.529,0.935-0.732,1.464-0.454l5.563,2.926
		C788.375,747.504,788.579,748.159,788.3,748.689"/>
	<path class="st59" d="M799.368,749.162l-5.402,10.271c-0.278,0.53-0.934,0.733-1.463,0.455l-5.563-2.926
		c-0.53-0.279-0.733-0.934-0.455-1.463l5.402-10.273c0.278-0.528,0.934-0.732,1.464-0.453l5.563,2.926
		C799.443,747.977,799.647,748.632,799.368,749.162"/>
	<path class="st59" d="M809.238,751.703l-6.493,12.348c-0.278,0.53-0.934,0.733-1.464,0.455l-5.563-2.927
		c-0.529-0.278-0.733-0.933-0.454-1.463l6.494-12.348c0.278-0.529,0.933-0.733,1.463-0.454l5.563,2.926
		C809.313,750.519,809.518,751.173,809.238,751.703"/>
	<path class="st59" d="M820.495,751.713l-8.929,16.978c-0.278,0.53-0.933,0.732-1.463,0.455l-5.564-2.926
		c-0.528-0.279-0.732-0.935-0.453-1.464l8.929-16.978c0.278-0.529,0.933-0.733,1.463-0.454l5.563,2.926
		C820.57,750.528,820.774,751.184,820.495,751.713"/>
	<path class="st59" d="M827.289,763.569l-5.517,10.488c-0.277,0.53-0.934,0.733-1.463,0.455l-6.774-3.563
		c-0.529-0.277-0.733-0.933-0.454-1.463l5.516-10.487c0.278-0.53,0.934-0.733,1.463-0.455l6.774,3.563
		C827.364,762.385,827.568,763.04,827.289,763.569"/>
	<path class="st59" d="M833.316,752.109l-4.45,8.461c-0.278,0.53-0.934,0.733-1.463,0.455l-6.775-3.563
		c-0.529-0.279-0.733-0.935-0.454-1.463l4.45-8.461c0.278-0.53,0.933-0.733,1.463-0.455l6.774,3.563
		C833.391,750.925,833.595,751.58,833.316,752.109"/>
	<path class="st59" d="M840.344,738.747l-5.485,10.429c-0.277,0.53-0.933,0.733-1.463,0.455l-6.774-3.563
		c-0.529-0.278-0.733-0.934-0.454-1.463l5.484-10.429c0.278-0.53,0.934-0.733,1.463-0.455l6.774,3.563
		C840.419,737.562,840.623,738.217,840.344,738.747"/>
	<path class="st59" d="M864.201,693.382l-22.173,42.16c-0.278,0.53-0.933,0.733-1.463,0.455l-6.774-3.563
		c-0.529-0.277-0.732-0.933-0.455-1.463l22.174-42.159c0.277-0.53,0.933-0.733,1.463-0.455l6.773,3.563
		C864.276,692.197,864.48,692.853,864.201,693.382"/>
	<path class="st59" d="M870.251,681.879l-4.518,8.591c-0.279,0.53-0.935,0.733-1.464,0.455l-6.774-3.563
		c-0.529-0.278-0.733-0.934-0.454-1.463l4.518-8.591c0.278-0.53,0.934-0.732,1.463-0.455l6.774,3.563
		C870.326,680.693,870.53,681.349,870.251,681.879"/>
	<path class="st59" d="M874.981,672.884l-3.107,5.91c-0.278,0.529-0.935,0.732-1.464,0.454l-6.774-3.563
		c-0.529-0.277-0.733-0.933-0.454-1.463l3.108-5.909c0.277-0.529,0.933-0.733,1.463-0.455l6.773,3.563
		C875.057,671.699,875.261,672.354,874.981,672.884"/>
	<path class="st59" d="M879.842,663.644l-3.457,6.574c-0.183,0.346-0.611,0.479-0.957,0.297l-3.093-1.626
		c-0.346-0.184-0.479-0.611-0.297-0.957l3.457-6.574c0.183-0.346,0.61-0.479,0.956-0.297l3.093,1.626
		C879.891,662.868,880.023,663.297,879.842,663.644"/>
	<path class="st59" d="M889.257,645.739l-3.457,6.574c-0.182,0.347-0.61,0.479-0.957,0.297l-3.092-1.626
		c-0.346-0.183-0.479-0.61-0.297-0.957l3.457-6.573c0.182-0.347,0.61-0.479,0.956-0.298l3.093,1.626
		C889.306,644.965,889.439,645.394,889.257,645.739"/>
	<path class="st59" d="M884.541,654.708l-3.457,6.573c-0.183,0.347-0.611,0.479-0.957,0.298l-3.093-1.626
		c-0.346-0.184-0.479-0.611-0.297-0.957l3.457-6.574c0.183-0.346,0.61-0.479,0.956-0.297l3.093,1.626
		C884.59,653.933,884.723,654.361,884.541,654.708"/>
	<path class="st59" d="M879.913,652.274l-3.457,6.573c-0.182,0.347-0.61,0.479-0.957,0.298l-3.092-1.626
		c-0.346-0.184-0.479-0.611-0.297-0.957l3.457-6.574c0.182-0.346,0.61-0.479,0.956-0.297l3.093,1.626
		C879.962,651.499,880.096,651.928,879.913,652.274"/>
	<path class="st59" d="M793.144,739.478l-3.198,6.083c-0.278,0.529-0.935,0.733-1.463,0.454l-5.564-2.926
		c-0.529-0.278-0.733-0.934-0.454-1.463l3.199-6.083c0.278-0.529,0.933-0.733,1.463-0.454l5.563,2.926
		C793.219,738.293,793.423,738.947,793.144,739.478"/>
	<path class="st59" d="M797.875,730.482l-3.199,6.083c-0.279,0.529-0.935,0.733-1.463,0.454l-5.564-2.926
		c-0.529-0.278-0.732-0.934-0.454-1.463l3.198-6.083c0.279-0.529,0.934-0.733,1.464-0.454l5.563,2.926
		C797.949,729.298,798.153,729.953,797.875,730.482"/>
	<path class="st59" d="M802.605,721.487l-3.199,6.083c-0.278,0.529-0.934,0.733-1.463,0.454l-5.564-2.926
		c-0.528-0.278-0.732-0.933-0.454-1.463l3.199-6.083c0.278-0.529,0.934-0.733,1.463-0.454l5.563,2.926
		C802.68,720.303,802.884,720.957,802.605,721.487"/>
	<path class="st59" d="M807.381,712.406l-3.198,6.083c-0.279,0.528-0.935,0.732-1.464,0.454l-5.563-2.927
		c-0.529-0.277-0.733-0.933-0.454-1.463l3.198-6.083c0.279-0.529,0.934-0.732,1.464-0.454l5.563,2.927
		C807.456,711.221,807.66,711.876,807.381,712.406"/>
	<path class="st59" d="M812.112,703.411l-3.199,6.083c-0.278,0.529-0.935,0.732-1.463,0.454l-5.564-2.927
		c-0.529-0.277-0.733-0.933-0.454-1.463l3.199-6.083c0.278-0.528,0.933-0.732,1.463-0.454l5.563,2.927
		C812.187,702.226,812.391,702.881,812.112,703.411"/>
	<path class="st59" d="M816.888,694.329l-3.198,6.083c-0.279,0.529-0.935,0.733-1.463,0.454l-5.564-2.926
		c-0.529-0.278-0.733-0.933-0.454-1.463l3.198-6.083c0.279-0.529,0.934-0.733,1.464-0.454l5.563,2.926
		C816.963,693.145,817.167,693.799,816.888,694.329"/>
	<path class="st59" d="M821.619,685.334l-3.199,6.083c-0.278,0.529-0.935,0.733-1.463,0.454l-5.564-2.926
		c-0.529-0.278-0.732-0.933-0.454-1.463l3.199-6.083c0.278-0.529,0.933-0.733,1.463-0.454l5.563,2.926
		C821.693,684.149,821.897,684.805,821.619,685.334"/>
	<path class="st59" d="M826.35,676.339l-3.199,6.083c-0.278,0.529-0.935,0.733-1.463,0.454l-5.564-2.926
		c-0.529-0.278-0.732-0.933-0.454-1.463l3.199-6.083c0.278-0.529,0.933-0.733,1.463-0.454l5.563,2.926
		C826.424,675.154,826.628,675.81,826.35,676.339"/>
	<path class="st59" d="M831.114,667.279l-3.199,6.083c-0.279,0.529-0.935,0.733-1.463,0.454l-5.564-2.926
		c-0.528-0.278-0.732-0.934-0.454-1.464l3.198-6.083c0.279-0.528,0.935-0.732,1.464-0.453l5.563,2.926
		C831.189,666.094,831.393,666.749,831.114,667.279"/>
	<path class="st59" d="M835.901,658.176l-3.199,6.083c-0.278,0.529-0.934,0.733-1.463,0.454l-5.563-2.926
		c-0.529-0.278-0.733-0.933-0.454-1.463l3.198-6.083c0.278-0.529,0.934-0.733,1.464-0.454l5.563,2.926
		C835.977,656.991,836.181,657.646,835.901,658.176"/>
	<path class="st59" d="M840.646,649.154l-3.199,6.083c-0.278,0.528-0.934,0.732-1.463,0.454l-5.564-2.927
		c-0.528-0.277-0.732-0.933-0.454-1.463l3.198-6.083c0.279-0.529,0.935-0.732,1.464-0.454l5.563,2.927
		C840.722,647.969,840.926,648.624,840.646,649.154"/>
	<path class="st59" d="M845.408,640.1l-3.199,6.083c-0.279,0.529-0.934,0.732-1.463,0.454l-5.563-2.926
		c-0.529-0.278-0.733-0.934-0.454-1.464l3.197-6.083c0.279-0.528,0.935-0.732,1.465-0.453l5.563,2.926
		C845.483,638.914,845.688,639.569,845.408,640.1"/>
	<path class="st59" d="M852.501,626.612l-5.513,10.483c-0.279,0.529-0.934,0.732-1.463,0.454l-5.564-2.926
		c-0.529-0.278-0.732-0.934-0.455-1.464l5.514-10.483c0.278-0.528,0.934-0.732,1.464-0.453l5.563,2.926
		C852.576,625.427,852.78,626.082,852.501,626.612"/>
	<path class="st59" d="M869.973,635.801l-6.68,12.699c-0.277,0.529-0.933,0.732-1.463,0.454l-5.563-2.926
		c-0.529-0.278-0.733-0.934-0.454-1.463l6.678-12.7c0.279-0.528,0.935-0.732,1.464-0.454l5.563,2.927
		C870.048,634.615,870.252,635.271,869.973,635.801"/>
	<path class="st59" d="M878.968,640.531l-9.044,17.197c-0.279,0.528-0.935,0.732-1.463,0.453l-5.564-2.926
		c-0.529-0.277-0.733-0.933-0.455-1.463l9.045-17.197c0.278-0.528,0.934-0.732,1.463-0.453l5.563,2.926
		C879.043,639.346,879.246,640.001,878.968,640.531"/>
	<path class="st59" d="M779.678,743.722l-3.344,6.357c-0.278,0.528-0.934,0.732-1.463,0.454l-2.99-1.572
		c-0.53-0.279-0.733-0.935-0.455-1.463l3.344-6.357c0.278-0.53,0.933-0.732,1.463-0.455l2.99,1.573
		C779.752,742.537,779.956,743.191,779.678,743.722"/>
	<path class="st59" d="M784.688,734.194l-3.343,6.357c-0.279,0.529-0.934,0.733-1.463,0.454l-2.991-1.572
		c-0.53-0.278-0.732-0.934-0.455-1.463l3.344-6.356c0.278-0.53,0.934-0.733,1.464-0.455l2.989,1.572
		C784.763,733.01,784.967,733.665,784.688,734.194"/>
	<path class="st59" d="M789.58,724.892l-3.343,6.356c-0.278,0.529-0.934,0.733-1.463,0.454l-2.991-1.571
		c-0.529-0.279-0.732-0.935-0.455-1.463l3.345-6.357c0.277-0.53,0.933-0.733,1.463-0.455l2.989,1.573
		C789.655,723.706,789.859,724.361,789.58,724.892"/>
	<path class="st59" d="M794.474,715.588l-3.344,6.357c-0.278,0.529-0.934,0.733-1.463,0.454l-2.991-1.572
		c-0.529-0.278-0.732-0.934-0.455-1.463l3.345-6.356c0.277-0.53,0.933-0.733,1.463-0.455l2.99,1.572
		C794.548,714.403,794.752,715.059,794.474,715.588"/>
	<path class="st59" d="M799.413,706.195l-3.343,6.357c-0.279,0.529-0.935,0.732-1.463,0.455l-2.991-1.573
		c-0.53-0.279-0.733-0.934-0.455-1.463l3.344-6.357c0.278-0.529,0.933-0.732,1.463-0.455l2.99,1.573
		C799.488,705.011,799.692,705.666,799.413,706.195"/>
	<path class="st59" d="M804.306,696.893l-3.343,6.356c-0.279,0.529-0.935,0.733-1.463,0.455l-2.991-1.573
		c-0.53-0.278-0.733-0.934-0.455-1.463l3.344-6.356c0.278-0.53,0.934-0.733,1.463-0.455l2.99,1.573
		C804.381,695.707,804.585,696.362,804.306,696.893"/>
	<path class="st59" d="M809.245,687.5l-3.343,6.356c-0.279,0.529-0.934,0.733-1.463,0.454l-2.991-1.572
		c-0.53-0.278-0.732-0.934-0.455-1.463l3.345-6.356c0.277-0.53,0.933-0.733,1.463-0.455l2.989,1.572
		C809.32,686.314,809.523,686.97,809.245,687.5"/>
	<path class="st59" d="M814.138,678.196l-3.343,6.357c-0.279,0.528-0.934,0.732-1.463,0.453l-2.991-1.571
		c-0.529-0.279-0.732-0.935-0.455-1.463l3.345-6.357c0.277-0.53,0.933-0.733,1.463-0.455l2.99,1.573
		C814.213,677.012,814.416,677.666,814.138,678.196"/>
	<path class="st59" d="M819.031,668.893l-3.344,6.357c-0.278,0.529-0.934,0.732-1.463,0.454l-2.991-1.572
		c-0.529-0.279-0.732-0.934-0.454-1.463l3.344-6.357c0.277-0.529,0.933-0.732,1.463-0.454l2.99,1.572
		C819.105,667.708,819.309,668.363,819.031,668.893"/>
	<path class="st59" d="M823.959,659.522l-3.343,6.357c-0.279,0.528-0.935,0.732-1.464,0.454l-2.99-1.572
		c-0.53-0.279-0.733-0.934-0.455-1.463l3.344-6.357c0.278-0.529,0.933-0.732,1.463-0.455l2.99,1.573
		C824.034,658.338,824.238,658.992,823.959,659.522"/>
	<path class="st59" d="M828.91,650.107l-3.343,6.357c-0.279,0.528-0.935,0.732-1.463,0.454l-2.991-1.572
		c-0.529-0.279-0.733-0.935-0.455-1.463l3.344-6.357c0.278-0.53,0.934-0.732,1.463-0.455l2.99,1.573
		C828.985,648.923,829.189,649.577,828.91,650.107"/>
	<path class="st59" d="M833.817,640.776l-3.343,6.356c-0.279,0.529-0.934,0.733-1.463,0.454l-2.991-1.571
		c-0.529-0.279-0.732-0.935-0.455-1.464l3.345-6.356c0.277-0.53,0.933-0.733,1.463-0.455l2.989,1.573
		C833.893,639.591,834.097,640.246,833.817,640.776"/>
	<path class="st59" d="M838.742,631.411l-3.343,6.357c-0.278,0.529-0.934,0.732-1.463,0.455l-2.991-1.573
		c-0.529-0.279-0.732-0.934-0.455-1.463l3.345-6.357c0.277-0.529,0.933-0.732,1.463-0.455l2.99,1.573
		C838.817,630.227,839.021,630.882,838.742,631.411"/>
	<path class="st59" d="M843.609,622.157l-3.343,6.356c-0.278,0.529-0.934,0.733-1.463,0.454l-2.991-1.572
		c-0.528-0.278-0.732-0.934-0.455-1.463l3.345-6.356c0.277-0.53,0.933-0.733,1.463-0.455l2.989,1.573
		C843.685,620.972,843.889,621.627,843.609,622.157"/>
	<path class="st69" d="M737.485,621.855l5.389,13.854c0,0,1.731-0.906,9.334-3.313C748.324,627.963,743.483,624.235,737.485,621.855
		"/>
	<path class="st69" d="M781.125,681.216c-2.002-2.362-7.073-6.516-14.446-6.726c0.055-4.934-0.271-8.646-1.333-13.54
		C768.347,661.312,781.157,666.868,781.125,681.216"/>
	<path class="st49" d="M742.874,635.71l16.544,42.537c0,0,4.54-1.486,7.161-1.479c0.996-6.012-1.143-29.276-14.37-44.371
		C746.841,633.747,742.874,635.71,742.874,635.71"/>
	<path class="st69" d="M763.341,688.334l-10.898-27.873C757.032,663.598,764.311,678.955,763.341,688.334"/>
	<path class="st31" d="M750.597,655.566c3.814-1.484,5.705-5.78,4.221-9.596c-1.483-3.814-5.779-5.705-9.595-4.221L750.597,655.566z
		"/>
	<path class="st17" d="M745.974,643.68c2.749-1.068,5.845,0.293,6.914,3.042s-0.293,5.845-3.042,6.914L745.974,643.68z"/>
	<path class="st15" d="M737.485,621.855l5.389,13.854c0,0-1.89,0.501-9.121,3.863C733.621,633.682,734.672,627.662,737.485,621.855"
		/>
	<path class="st32" d="M745.421,695.102c-0.121-3.093,0.813-9.582,6.105-14.719c-3.374-3.6-5.644-6.557-8.165-10.882
		C741.393,671.794,735.702,684.548,745.421,695.102"/>
	<path class="st65" d="M742.874,635.71l16.544,42.537c0,0-4.353,1.972-6.279,3.748c-4.796-3.759-18.938-22.355-19.386-42.421
		C738.624,636.943,742.874,635.71,742.874,635.71"/>
	<path class="st15" d="M763.341,688.334l-10.798-27.911C751.279,665.835,756.289,682.075,763.341,688.334"/>
	<path class="st7" d="M750.597,655.566c-3.815,1.483-8.111-0.406-9.596-4.222c-1.483-3.815,0.406-8.111,4.222-9.595L750.597,655.566
		z"/>
	<path class="st80" d="M745.974,643.68c-2.749,1.069-4.111,4.165-3.042,6.914s4.165,4.111,6.914,3.042L745.974,643.68z"/>
	<path class="st73" d="M758.679,684.193l2.239,10.073l-5.156-8.939c-0.313-0.805,0.086-1.712,0.892-2.025
		C757.459,682.989,758.366,683.388,758.679,684.193"/>
	<path class="st73" d="M767.684,682.242l2.239,10.074l-5.156-8.939c-0.313-0.806,0.086-1.712,0.892-2.025
		C766.464,681.039,767.371,681.438,767.684,682.242"/>
	<path class="st73" d="M766.072,690.892l2.238,10.074l-5.156-8.94c-0.313-0.805,0.086-1.712,0.892-2.024
		C764.852,689.688,765.759,690.087,766.072,690.892"/>
	<g id="planets" class="st35">
		<path class="st75" d="M797.999,607.5c0-11.736-9.514-21.249-21.249-21.249s-21.25,9.513-21.25,21.249s9.515,21.249,21.25,21.249
			S797.999,619.236,797.999,607.5"/>
		<path class="st52" d="M746.585,721.73c0-7.093-5.75-12.843-12.843-12.843s-12.843,5.75-12.843,12.843
			c0,7.094,5.75,12.844,12.843,12.844S746.585,728.824,746.585,721.73"/>
	</g>
</g>
<g>
	<defs>
		<rect id="SVGID_5_" width="1242" height="1242"/>
	</defs>
	<clipPath id="SVGID_6_">
		<use xlink:href="#SVGID_5_"  style="overflow:visible;"/>
	</clipPath>
	<path class="st1" d="M960.145,526.686c0,22.071-17.892,39.963-39.963,39.963c-22.07,0-39.962-17.892-39.962-39.963
		c0-22.071,17.892-39.963,39.962-39.963C942.253,486.723,960.145,504.615,960.145,526.686"/>
	<circle class="st33" cx="920.182" cy="526.686" r="39.962"/>
	<path class="st77" d="M956.117,526.686c0,19.846-16.089,35.936-35.936,35.936c-19.846,0-35.935-16.089-35.935-35.936
		c0-19.846,16.089-35.935,35.935-35.935C940.028,490.751,956.117,506.84,956.117,526.686"/>
	<path class="st87" d="M950.543,522.625h-6.88c-1.931-11.235-11.695-19.791-23.481-19.791c-13.173,0-23.852,10.679-23.852,23.852
		c0,13.173,10.679,23.852,23.852,23.852c11.81,0,21.587-8.591,23.491-19.858h6.87c1.41,0,2.553-1.143,2.553-2.553v-2.949
		C953.096,523.768,951.953,522.625,950.543,522.625"/>
	<path class="st4" d="M940.15,526.686c0-11.028-8.94-19.968-19.969-19.968c-11.027,0-19.968,8.94-19.968,19.968
		c0,11.028,8.94,19.968,19.968,19.968C931.21,546.654,940.15,537.714,940.15,526.686"/>
	<path class="st62" d="M923.032,514.282c0,1.351-1.095,2.445-2.445,2.445c-14.385-0.935-15.246,11.33-14.097,14.745
		c-5.323-10.717,5.538-20.283,14.097-19.635C921.938,511.837,923.032,512.931,923.032,514.282"/>
	<path class="st1" d="M632.267,832.091c-15.187,16.016-40.48,16.687-56.496,1.5s-16.686-40.48-1.499-56.496
		c15.186-16.015,40.48-16.687,56.495-1.5C646.782,790.782,647.454,816.076,632.267,832.091"/>
	<circle class="st33" cx="603.269" cy="804.593" r="39.962"/>
	<path class="st77" d="M629.345,829.319c-13.656,14.401-36.401,15.005-50.802,1.349c-14.401-13.656-15.004-36.4-1.348-50.802
		c13.656-14.4,36.401-15.005,50.802-1.349C642.396,792.174,643,814.919,629.345,829.319"/>
	<path class="st87" d="M628.094,822.537l-4.992-4.733c6.329-9.481,5.132-22.408-3.42-30.519c-9.559-9.063-24.656-8.662-33.72,0.896
		c-9.064,9.559-8.664,24.656,0.895,33.72c8.569,8.125,21.575,8.621,30.709,1.755l4.985,4.728c1.023,0.971,2.639,0.928,3.61-0.096
		l2.028-2.14C629.16,825.124,629.117,823.508,628.094,822.537"/>
	<path class="st54" d="M617.758,818.333c7.588-8.002,7.253-20.642-0.749-28.229c-8.002-7.588-20.641-7.253-28.229,0.749
		c-7.589,8.002-7.253,20.642,0.749,28.229C597.531,826.671,610.17,826.335,617.758,818.333"/>
	<path class="st62" d="M613.873,797.554c-0.929,0.98-2.477,1.021-3.457,0.092c-9.795-10.577-18.859-2.27-20.375,0.998
		c3.512-11.438,17.975-10.905,23.74-4.547C614.76,795.025,614.801,796.574,613.873,797.554"/>
</g>
<g>
	<defs>
		<rect id="SVGID_7_" width="1242" height="1242"/>
	</defs>
	<clipPath id="SVGID_8_">
		<use xlink:href="#SVGID_7_"  style="overflow:visible;"/>
	</clipPath>
	<path class="st36" d="M490.279,866.449l-14.804-20.343c-1.421-1.953-0.99-4.688,0.962-6.108l42.418-30.869
		c1.953-1.421,4.688-0.99,6.109,0.963l14.804,20.343c1.421,1.953,0.99,4.688-0.962,6.109l-42.418,30.868
		C494.435,868.834,491.7,868.402,490.279,866.449"/>
	<path class="st48" d="M477.381,840.428l41.593-30.268c1.757-1.279,4.219-0.893,5.498,0.865l14.256,19.59
		c1.279,1.758,0.891,4.219-0.867,5.499l-41.593,30.268L477.381,840.428z"/>
	<path class="st48" d="M477.381,840.428c-1.758,1.279-2.146,3.741-0.867,5.499l14.256,19.588c1.279,1.758,3.741,2.146,5.498,0.867
		L477.381,840.428z"/>
	
		<rect x="483.49" y="831.62" transform="matrix(0.5884 0.8086 -0.8086 0.5884 881.9738 -50.6468)" class="st16" width="14.49" height="18.739"/>
	<path class="st0" d="M530.518,820.998l-7.02-9.646c-0.831-1.143-2.432-1.395-3.576-0.563l-25.14,18.295l8.526,11.715
		L530.518,820.998z"/>
	
		<rect x="492.61" y="844.152" transform="matrix(0.5884 0.8086 -0.8086 0.5884 895.8612 -52.863)" class="st86" width="14.49" height="18.74"/>
	
		<rect x="507.519" y="834.513" transform="matrix(0.5884 0.8086 -0.8086 0.5884 893.2252 -69.3828)" class="st25" width="14.49" height="16.319"/>
	<path class="st86" d="M538.181,831.528l-7.069-9.714l-13.194,9.603l8.526,11.716l11.192-8.145
		C538.742,834.183,538.986,832.634,538.181,831.528"/>
	
		<rect x="477.801" y="855.281" transform="matrix(0.5869 0.8097 -0.8097 0.5869 892.4421 -36.134)" class="st36" width="7.656" height="2.345"/>
	
		<rect x="336.5" y="674.582" transform="matrix(0.9746 0.2239 -0.2239 0.9746 160.4664 -59.0883)" class="st36" width="8.5" height="6.72"/>
	<path class="st38" d="M336.63,676.893C294,670.186,224,701.941,307.667,774.637c83.667,72.696,119.731,120.696,173.032,82.529"/>
	<path class="st20" d="M336.63,676.893C294,670.186,224,701.941,307.667,774.637c83.667,72.696,119.731,120.696,173.032,82.529"/>
</g>
<g id="lap1">
	<defs>
		<rect id="SVGID_9_" width="1242" height="1242"/>
	</defs>
	<clipPath id="SVGID_10_">
		<use xlink:href="#SVGID_9_"  style="overflow:visible;"/>
	</clipPath>
	<path class="st11" d="M359.804,533.446l220.282,51.137c2.281,0.53,2.977,4.694,1.332,7.964l-34.437,68.421
		c-1.57,3.119-4.017,4.826-6.193,4.321L360.59,623.457c-2.14-0.497-3.588-3.076-3.662-6.523l-1.644-77.038
		C355.208,536.296,357.569,532.927,359.804,533.446"/>
	<path class="st84" d="M368.121,542.875l201.025,46.667c2.082,0.483,2.776,4.025,1.327,6.773l-28.526,58.413
		c-1.382,2.622-5.374,3.131-7.36,2.67l-164.445-38.175c-1.953-0.454-6.123-2.297-6.239-5.222l0.202-65.723
		C363.982,545.225,366.081,542.401,368.121,542.875"/>
	<path class="st83" d="M363.34,622.386l175.504,40.374c2.871,0.66,4.663,3.522,4.002,6.394l-27.404,119.125
		c-0.66,2.87-3.522,4.662-6.393,4.002l-175.504-40.374c-2.871-0.66-4.663-3.523-4.002-6.394l27.404-119.125
		C357.607,623.517,360.469,621.726,363.34,622.386"/>
	<path class="st9" d="M406.46,717.74l52.313,12.034c0.807,0.186,1.311,0.991,1.125,1.798l-8.441,36.695
		c-0.186,0.807-0.991,1.311-1.798,1.125l-52.313-12.034c-0.807-0.187-1.311-0.991-1.125-1.798l8.441-36.694
		C404.848,718.059,405.653,717.554,406.46,717.74"/>
	<path class="st21" d="M392.723,671.562l-6.698-1.541c-0.583-0.134-0.947-0.715-0.813-1.298l1.41-6.127
		c0.134-0.583,0.715-0.947,1.298-0.813l6.698,1.541c0.583,0.134,0.947,0.716,0.813,1.299l-1.409,6.126
		C393.887,671.332,393.306,671.696,392.723,671.562"/>
	<path class="st21" d="M402.866,673.896l-6.698-1.541c-0.583-0.135-0.947-0.716-0.813-1.299l1.41-6.127
		c0.134-0.583,0.715-0.946,1.298-0.813l6.698,1.541c0.583,0.134,0.947,0.716,0.813,1.299l-1.409,6.126
		C404.029,673.665,403.448,674.029,402.866,673.896"/>
	<path class="st21" d="M412.77,676.174l-6.698-1.541c-0.583-0.135-0.947-0.715-0.813-1.298l1.41-6.127
		c0.134-0.583,0.715-0.947,1.298-0.813l6.698,1.541c0.583,0.134,0.947,0.716,0.813,1.299l-1.409,6.126
		C413.934,675.943,413.353,676.308,412.77,676.174"/>
	<path class="st21" d="M422.674,678.452l-6.698-1.541c-0.583-0.134-0.947-0.715-0.813-1.298l1.41-6.127
		c0.134-0.583,0.715-0.947,1.298-0.813l6.698,1.541c0.583,0.134,0.947,0.716,0.813,1.299l-1.409,6.126
		C423.838,678.222,423.257,678.586,422.674,678.452"/>
	<path class="st21" d="M432.674,680.752l-6.698-1.541c-0.583-0.134-0.947-0.715-0.813-1.298l1.41-6.127
		c0.134-0.583,0.715-0.946,1.298-0.813l6.698,1.541c0.583,0.134,0.947,0.716,0.813,1.299l-1.409,6.126
		C433.838,680.522,433.257,680.887,432.674,680.752"/>
	<path class="st21" d="M442.579,683.031l-6.698-1.541c-0.583-0.135-0.947-0.716-0.813-1.299l1.41-6.127
		c0.134-0.583,0.715-0.946,1.298-0.813l6.698,1.541c0.583,0.134,0.947,0.716,0.813,1.299l-1.409,6.126
		C443.743,682.801,443.162,683.165,442.579,683.031"/>
	<path class="st21" d="M452.579,685.331l-6.698-1.541c-0.583-0.134-0.947-0.715-0.813-1.298l1.41-6.127
		c0.134-0.583,0.715-0.947,1.298-0.813l6.698,1.541c0.583,0.135,0.947,0.717,0.813,1.3l-1.409,6.126
		C453.742,685.102,453.161,685.465,452.579,685.331"/>
	<path class="st21" d="M462.483,687.609l-6.698-1.541c-0.583-0.134-0.947-0.715-0.813-1.298l1.41-6.127
		c0.134-0.583,0.715-0.947,1.298-0.813l6.698,1.541c0.583,0.134,0.947,0.716,0.813,1.299l-1.409,6.126
		C463.647,687.38,463.066,687.744,462.483,687.609"/>
	<path class="st21" d="M472.387,689.888l-6.698-1.54c-0.583-0.135-0.947-0.716-0.813-1.299l1.41-6.127
		c0.134-0.583,0.715-0.946,1.298-0.813l6.698,1.541c0.583,0.134,0.947,0.716,0.813,1.299l-1.409,6.126
		C473.551,689.658,472.97,690.022,472.387,689.888"/>
	<path class="st21" d="M482.363,692.183l-6.698-1.541c-0.583-0.134-0.947-0.715-0.813-1.298l1.41-6.127
		c0.134-0.583,0.715-0.947,1.298-0.813l6.698,1.541c0.583,0.134,0.947,0.716,0.813,1.299l-1.409,6.126
		C483.527,691.953,482.946,692.317,482.363,692.183"/>
	<path class="st21" d="M492.387,694.488l-6.698-1.54c-0.583-0.135-0.947-0.716-0.813-1.299l1.41-6.127
		c0.134-0.583,0.715-0.946,1.298-0.813l6.698,1.541c0.583,0.134,0.947,0.716,0.813,1.299l-1.409,6.126
		C493.551,694.259,492.97,694.623,492.387,694.488"/>
	<path class="st21" d="M502.321,696.774l-6.698-1.541c-0.583-0.134-0.947-0.715-0.813-1.298l1.41-6.127
		c0.134-0.583,0.715-0.947,1.298-0.813l6.698,1.541c0.583,0.134,0.947,0.716,0.813,1.299l-1.409,6.126
		C503.485,696.544,502.904,696.908,502.321,696.774"/>
	<path class="st21" d="M512.291,699.067l-6.698-1.541c-0.583-0.134-0.947-0.715-0.813-1.298l1.41-6.127
		c0.134-0.583,0.715-0.947,1.298-0.813l6.698,1.541c0.583,0.134,0.947,0.716,0.813,1.299l-1.409,6.126
		C513.455,698.838,512.874,699.202,512.291,699.067"/>
	<path class="st21" d="M392.904,681.781l-6.698-1.541c-0.583-0.134-0.947-0.715-0.813-1.298l1.41-6.127
		c0.134-0.583,0.715-0.947,1.298-0.813l6.698,1.541c0.583,0.135,0.947,0.717,0.813,1.3l-1.409,6.126
		C394.068,681.552,393.487,681.915,392.904,681.781"/>
	<path class="st21" d="M403.046,684.114l-6.698-1.541c-0.583-0.134-0.947-0.715-0.813-1.298l1.41-6.127
		c0.134-0.583,0.715-0.947,1.298-0.813l6.698,1.541c0.583,0.134,0.947,0.716,0.813,1.299l-1.409,6.126
		C404.21,683.885,403.629,684.249,403.046,684.114"/>
	<path class="st21" d="M412.951,686.394l-6.698-1.541c-0.583-0.135-0.947-0.716-0.813-1.299l1.41-6.127
		c0.134-0.583,0.715-0.946,1.298-0.813l6.698,1.541c0.583,0.134,0.947,0.716,0.813,1.299l-1.409,6.126
		C414.115,686.163,413.534,686.527,412.951,686.394"/>
	<path class="st21" d="M422.855,688.672l-6.698-1.541c-0.583-0.135-0.947-0.715-0.813-1.298l1.41-6.127
		c0.134-0.583,0.715-0.947,1.298-0.813l6.698,1.541c0.583,0.134,0.947,0.716,0.813,1.299l-1.409,6.126
		C424.02,688.441,423.438,688.806,422.855,688.672"/>
	<path class="st21" d="M432.855,690.972l-6.698-1.541c-0.583-0.134-0.947-0.715-0.813-1.298l1.41-6.127
		c0.134-0.583,0.715-0.947,1.298-0.813l6.698,1.541c0.583,0.134,0.947,0.716,0.813,1.299l-1.409,6.126
		C434.019,690.742,433.438,691.105,432.855,690.972"/>
	<path class="st21" d="M442.76,693.25l-6.698-1.541c-0.583-0.134-0.947-0.715-0.813-1.298l1.41-6.127
		c0.134-0.583,0.715-0.946,1.298-0.813l6.698,1.541c0.583,0.134,0.947,0.716,0.813,1.299l-1.409,6.126
		C443.924,693.021,443.343,693.385,442.76,693.25"/>
	<path class="st21" d="M452.759,695.551l-6.698-1.541c-0.583-0.134-0.947-0.715-0.813-1.298l1.41-6.127
		c0.134-0.583,0.715-0.947,1.298-0.813l6.698,1.541c0.583,0.135,0.947,0.717,0.813,1.299l-1.409,6.127
		C453.923,695.32,453.342,695.685,452.759,695.551"/>
	<path class="st21" d="M462.664,697.829l-6.698-1.541c-0.583-0.134-0.947-0.715-0.813-1.298l1.41-6.127
		c0.134-0.583,0.715-0.947,1.298-0.813l6.698,1.541c0.583,0.135,0.947,0.717,0.813,1.3l-1.409,6.126
		C463.828,697.6,463.247,697.963,462.664,697.829"/>
	<path class="st21" d="M472.568,700.107l-6.698-1.541c-0.583-0.134-0.947-0.715-0.813-1.298l1.41-6.127
		c0.134-0.583,0.715-0.947,1.298-0.813l6.698,1.541c0.583,0.134,0.947,0.716,0.813,1.299l-1.409,6.126
		C473.732,699.878,473.151,700.242,472.568,700.107"/>
	<path class="st21" d="M482.544,702.402l-6.698-1.541c-0.583-0.134-0.947-0.715-0.813-1.298l1.41-6.127
		c0.134-0.583,0.715-0.947,1.298-0.813l6.698,1.541c0.583,0.134,0.947,0.716,0.813,1.299l-1.409,6.126
		C483.708,702.173,483.127,702.537,482.544,702.402"/>
	<path class="st21" d="M492.568,704.708l-6.698-1.541c-0.583-0.134-0.947-0.715-0.813-1.298l1.41-6.127
		c0.134-0.583,0.715-0.947,1.298-0.813l6.698,1.541c0.583,0.134,0.947,0.716,0.813,1.299l-1.409,6.126
		C493.732,704.479,493.151,704.843,492.568,704.708"/>
	<path class="st21" d="M395.671,692.746l-6.698-1.541c-0.583-0.134-0.947-0.715-0.813-1.298l1.41-6.127
		c0.134-0.583,0.715-0.947,1.298-0.813l6.698,1.541c0.583,0.135,0.947,0.717,0.813,1.3l-1.409,6.126
		C396.835,692.517,396.254,692.88,395.671,692.746"/>
	<path class="st21" d="M405.813,695.079l-6.698-1.54c-0.583-0.135-0.947-0.716-0.813-1.299l1.41-6.127
		c0.134-0.583,0.715-0.946,1.298-0.813l6.698,1.541c0.583,0.134,0.947,0.716,0.813,1.299l-1.409,6.126
		C406.978,694.85,406.396,695.214,405.813,695.079"/>
	<path class="st21" d="M415.718,697.358l-6.698-1.541c-0.583-0.135-0.947-0.716-0.813-1.299l1.41-6.127
		c0.134-0.583,0.715-0.946,1.298-0.813l6.698,1.541c0.583,0.134,0.947,0.716,0.813,1.299l-1.409,6.126
		C416.882,697.128,416.301,697.492,415.718,697.358"/>
	<path class="st21" d="M425.623,699.637l-6.698-1.541c-0.583-0.134-0.947-0.715-0.813-1.298l1.41-6.127
		c0.134-0.583,0.715-0.947,1.298-0.813l6.698,1.541c0.583,0.134,0.947,0.716,0.813,1.299l-1.409,6.126
		C426.788,699.406,426.206,699.771,425.623,699.637"/>
	<path class="st21" d="M435.622,701.937l-6.698-1.541c-0.583-0.134-0.947-0.715-0.813-1.298l1.41-6.127
		c0.134-0.583,0.715-0.947,1.298-0.813l6.698,1.541c0.583,0.134,0.947,0.716,0.813,1.299l-1.409,6.126
		C436.786,701.707,436.205,702.071,435.622,701.937"/>
	<path class="st21" d="M445.527,704.215l-6.698-1.541c-0.583-0.134-0.947-0.715-0.813-1.298l1.41-6.127
		c0.134-0.583,0.715-0.946,1.298-0.813l6.698,1.541c0.583,0.134,0.947,0.716,0.813,1.299l-1.409,6.126
		C446.691,703.985,446.11,704.35,445.527,704.215"/>
	<path class="st21" d="M455.526,706.516l-6.698-1.541c-0.583-0.134-0.947-0.715-0.813-1.298l1.41-6.127
		c0.134-0.583,0.715-0.947,1.298-0.813l6.698,1.541c0.583,0.135,0.947,0.717,0.813,1.3l-1.409,6.126
		C456.69,706.286,456.109,706.649,455.526,706.516"/>
	<path class="st21" d="M465.431,708.794l-6.698-1.541c-0.583-0.134-0.947-0.715-0.813-1.298l1.41-6.127
		c0.134-0.583,0.715-0.947,1.298-0.813l6.698,1.541c0.583,0.134,0.947,0.716,0.813,1.299l-1.409,6.126
		C466.595,708.564,466.014,708.928,465.431,708.794"/>
	<path class="st21" d="M475.335,711.072l-6.698-1.541c-0.583-0.134-0.947-0.715-0.813-1.298l1.41-6.127
		c0.134-0.583,0.715-0.947,1.298-0.813l6.698,1.541c0.583,0.134,0.947,0.716,0.813,1.299l-1.409,6.126
		C476.5,710.843,475.918,711.207,475.335,711.072"/>
	<path class="st21" d="M485.312,713.367l-6.698-1.541c-0.583-0.134-0.947-0.715-0.813-1.298l1.41-6.127
		c0.134-0.583,0.715-0.947,1.298-0.813l6.698,1.541c0.583,0.134,0.947,0.716,0.813,1.299l-1.409,6.126
		C486.476,713.138,485.895,713.502,485.312,713.367"/>
	<path class="st21" d="M380.118,658.384l-6.698-1.541c-0.583-0.134-0.947-0.715-0.813-1.298l1.41-6.127
		c0.134-0.583,0.715-0.947,1.298-0.813l6.698,1.541c0.583,0.135,0.947,0.717,0.813,1.3l-1.409,6.126
		C381.282,658.154,380.701,658.518,380.118,658.384"/>
	<path class="st21" d="M382.485,669.207l-11.311-2.603c-0.583-0.134-0.947-0.716-0.813-1.299l1.41-6.126
		c0.134-0.583,0.715-0.947,1.298-0.813l11.311,2.602c0.583,0.134,0.947,0.716,0.813,1.299l-1.409,6.126
		C383.649,668.977,383.068,669.341,382.485,669.207"/>
	<path class="st21" d="M382.547,679.398l-13.596-3.128c-0.583-0.134-0.947-0.715-0.813-1.298l1.409-6.127
		c0.134-0.583,0.716-0.947,1.299-0.813l13.596,3.128c0.583,0.134,0.947,0.716,0.813,1.299l-1.409,6.126
		C383.711,679.169,383.13,679.533,382.547,679.398"/>
	<path class="st21" d="M385.41,690.285l-18.694-4.3c-0.583-0.135-0.947-0.716-0.813-1.299l1.41-6.126
		c0.134-0.583,0.715-0.947,1.298-0.813l18.694,4.3c0.583,0.134,0.947,0.716,0.813,1.299l-1.409,6.126
		C386.574,690.056,385.993,690.42,385.41,690.285"/>
	<path class="st21" d="M375.68,699.88l-11.549-2.657c-0.583-0.134-0.947-0.715-0.813-1.298l1.716-7.46
		c0.134-0.583,0.716-0.947,1.299-0.813l11.549,2.657c0.583,0.134,0.947,0.715,0.813,1.298l-1.716,7.46
		C376.844,699.649,376.263,700.014,375.68,699.88"/>
	<path class="st21" d="M388.298,702.782l-9.317-2.143c-0.583-0.134-0.947-0.716-0.813-1.299l1.716-7.459
		c0.135-0.584,0.716-0.948,1.299-0.813l9.317,2.144c0.583,0.134,0.947,0.715,0.813,1.298l-1.716,7.46
		C389.462,702.553,388.881,702.916,388.298,702.782"/>
	<path class="st21" d="M403.012,706.167l-11.483-2.642c-0.583-0.134-0.947-0.715-0.813-1.298l1.716-7.46
		c0.134-0.583,0.715-0.947,1.298-0.813l11.484,2.643c0.583,0.134,0.947,0.715,0.813,1.298l-1.716,7.46
		C404.176,705.938,403.595,706.302,403.012,706.167"/>
	<path class="st21" d="M452.963,717.658l-46.423-10.679c-0.583-0.134-0.947-0.716-0.813-1.299l1.716-7.459
		c0.134-0.585,0.716-0.948,1.299-0.813l46.423,10.679c0.583,0.135,0.947,0.716,0.813,1.298l-1.716,7.461
		C454.127,717.428,453.546,717.792,452.963,717.658"/>
	<path class="st21" d="M465.629,720.572l-9.46-2.176c-0.583-0.135-0.947-0.717-0.812-1.3l1.716-7.459
		c0.134-0.583,0.715-0.946,1.298-0.813l9.46,2.176c0.583,0.134,0.947,0.715,0.813,1.298l-1.716,7.46
		C466.793,720.342,466.212,720.706,465.629,720.572"/>
	<path class="st21" d="M475.534,722.851l-6.507-1.497c-0.583-0.134-0.947-0.716-0.813-1.299l1.716-7.459
		c0.134-0.583,0.715-0.947,1.298-0.813l6.508,1.497c0.583,0.135,0.947,0.715,0.813,1.298l-1.716,7.46
		C476.698,722.62,476.117,722.984,475.534,722.851"/>
	<path class="st21" d="M485.708,725.191l-7.238-1.665c-0.381-0.088-0.619-0.468-0.532-0.85l0.784-3.404
		c0.087-0.382,0.467-0.619,0.849-0.532l7.238,1.665c0.381,0.088,0.619,0.468,0.531,0.85l-0.783,3.405
		C486.47,725.041,486.09,725.279,485.708,725.191"/>
	<path class="st21" d="M505.422,729.727l-7.238-1.665c-0.381-0.089-0.619-0.469-0.532-0.85l0.784-3.405
		c0.087-0.381,0.467-0.618,0.849-0.531l7.238,1.665c0.381,0.088,0.619,0.468,0.531,0.849l-0.783,3.405
		C506.184,729.576,505.804,729.814,505.422,729.727"/>
	<path class="st21" d="M495.548,727.454l-7.238-1.665c-0.381-0.088-0.619-0.468-0.532-0.849l0.784-3.405
		c0.087-0.381,0.467-0.618,0.849-0.531l7.238,1.665c0.381,0.088,0.619,0.468,0.531,0.85l-0.783,3.405
		C496.309,727.305,495.929,727.543,495.548,727.454"/>
	<path class="st21" d="M496.72,722.359l-7.238-1.665c-0.381-0.088-0.619-0.468-0.532-0.849l0.784-3.405
		c0.087-0.381,0.467-0.619,0.849-0.532l7.238,1.665c0.381,0.088,0.619,0.468,0.531,0.851l-0.783,3.404
		C497.481,722.209,497.101,722.447,496.72,722.359"/>
	<path class="st21" d="M390.26,660.717l-6.698-1.541c-0.583-0.134-0.947-0.715-0.813-1.298l1.41-6.127
		c0.134-0.583,0.715-0.947,1.298-0.813l6.698,1.541c0.583,0.134,0.947,0.716,0.813,1.299l-1.409,6.126
		C391.424,660.487,390.843,660.852,390.26,660.717"/>
	<path class="st21" d="M400.165,662.996l-6.698-1.541c-0.583-0.135-0.947-0.716-0.813-1.299l1.41-6.127
		c0.134-0.583,0.715-0.946,1.298-0.813l6.698,1.541c0.583,0.134,0.947,0.716,0.813,1.299l-1.409,6.126
		C401.33,662.766,400.748,663.13,400.165,662.996"/>
	<path class="st21" d="M410.069,665.274l-6.698-1.541c-0.583-0.135-0.947-0.716-0.813-1.299l1.41-6.127
		c0.134-0.583,0.715-0.946,1.298-0.813l6.698,1.541c0.583,0.134,0.947,0.716,0.813,1.299l-1.409,6.126
		C411.234,665.044,410.652,665.408,410.069,665.274"/>
	<path class="st21" d="M420.069,667.574l-6.698-1.541c-0.583-0.134-0.947-0.715-0.813-1.298l1.41-6.127
		c0.134-0.583,0.715-0.947,1.298-0.813l6.698,1.541c0.583,0.135,0.947,0.717,0.813,1.3l-1.409,6.126
		C421.233,667.345,420.652,667.708,420.069,667.574"/>
	<path class="st21" d="M429.974,669.853l-6.698-1.541c-0.583-0.134-0.947-0.715-0.813-1.298l1.41-6.127
		c0.134-0.583,0.715-0.947,1.298-0.813l6.698,1.541c0.583,0.134,0.947,0.716,0.813,1.299l-1.409,6.126
		C431.138,669.623,430.557,669.987,429.974,669.853"/>
	<path class="st21" d="M439.973,672.153l-6.698-1.541c-0.583-0.134-0.947-0.715-0.813-1.298l1.41-6.127
		c0.134-0.583,0.715-0.947,1.298-0.813l6.698,1.541c0.583,0.135,0.947,0.716,0.813,1.3l-1.409,6.125
		C441.137,671.924,440.556,672.287,439.973,672.153"/>
	<path class="st21" d="M449.878,674.432l-6.698-1.541c-0.583-0.134-0.947-0.715-0.813-1.298l1.41-6.127
		c0.134-0.583,0.715-0.947,1.298-0.813l6.698,1.541c0.583,0.135,0.947,0.717,0.813,1.3l-1.409,6.126
		C451.042,674.202,450.46,674.565,449.878,674.432"/>
	<path class="st21" d="M459.782,676.71l-6.698-1.541c-0.583-0.134-0.947-0.715-0.813-1.298l1.41-6.127
		c0.134-0.583,0.715-0.947,1.298-0.813l6.698,1.541c0.583,0.135,0.947,0.717,0.813,1.3l-1.409,6.126
		C460.946,676.48,460.365,676.844,459.782,676.71"/>
	<path class="st21" d="M469.758,679.005l-6.698-1.541c-0.583-0.134-0.947-0.715-0.813-1.298l1.41-6.127
		c0.134-0.583,0.715-0.947,1.298-0.813l6.698,1.541c0.583,0.134,0.947,0.716,0.813,1.299l-1.409,6.126
		C470.922,678.775,470.341,679.139,469.758,679.005"/>
	<path class="st21" d="M479.782,681.311l-6.698-1.541c-0.583-0.134-0.947-0.715-0.813-1.298l1.41-6.127
		c0.134-0.583,0.715-0.946,1.298-0.813l6.698,1.541c0.583,0.134,0.947,0.716,0.813,1.299l-1.409,6.126
		C480.945,681.081,480.365,681.445,479.782,681.311"/>
	<path class="st21" d="M489.716,683.596l-6.698-1.54c-0.583-0.135-0.947-0.716-0.813-1.299l1.41-6.127
		c0.134-0.583,0.715-0.946,1.298-0.813l6.698,1.541c0.583,0.134,0.947,0.716,0.813,1.299l-1.409,6.126
		C490.88,683.366,490.299,683.73,489.716,683.596"/>
	<path class="st21" d="M499.686,685.89l-6.698-1.541c-0.583-0.134-0.947-0.715-0.813-1.298l1.41-6.127
		c0.134-0.583,0.715-0.947,1.298-0.813l6.698,1.541c0.583,0.135,0.947,0.717,0.813,1.3l-1.409,6.126
		C500.851,685.66,500.269,686.023,499.686,685.89"/>
	<path class="st21" d="M514.537,689.306l-11.543-2.654c-0.583-0.134-0.947-0.716-0.813-1.3l1.41-6.125
		c0.134-0.584,0.715-0.947,1.298-0.813l11.543,2.655c0.583,0.134,0.947,0.716,0.813,1.299l-1.409,6.126
		C515.701,689.076,515.12,689.44,514.537,689.306"/>
	<path class="st21" d="M510.111,708.544l-13.983-3.218c-0.583-0.134-0.947-0.715-0.813-1.298l1.409-6.127
		c0.134-0.583,0.716-0.946,1.299-0.813l13.983,3.217c0.583,0.134,0.947,0.716,0.813,1.299l-1.409,6.126
		C511.276,708.313,510.694,708.678,510.111,708.544"/>
	<path class="st21" d="M507.833,718.448l-18.936-4.356c-0.583-0.134-0.947-0.716-0.812-1.299l1.409-6.126
		c0.134-0.583,0.715-0.947,1.299-0.813l18.935,4.355c0.583,0.134,0.947,0.716,0.813,1.299l-1.409,6.126
		C508.997,718.218,508.416,718.582,507.833,718.448"/>
	<path class="st21" d="M382.72,648.779l-7-1.609c-0.583-0.135-0.947-0.717-0.812-1.3l0.757-3.293
		c0.134-0.583,0.716-0.946,1.299-0.813l6.999,1.61c0.583,0.135,0.947,0.716,0.813,1.299l-0.757,3.293
		C383.885,648.55,383.303,648.913,382.72,648.779"/>
	<path class="st21" d="M393.21,651.192l-7-1.609c-0.583-0.134-0.947-0.716-0.812-1.3l0.757-3.293
		c0.134-0.582,0.716-0.946,1.299-0.813l6.999,1.61c0.583,0.134,0.947,0.716,0.813,1.299l-0.757,3.293
		C394.374,650.963,393.793,651.327,393.21,651.192"/>
	<path class="st21" d="M403.454,653.549l-7-1.609c-0.583-0.134-0.947-0.716-0.812-1.299l0.757-3.293
		c0.134-0.583,0.716-0.947,1.299-0.813l6.999,1.61c0.583,0.135,0.947,0.716,0.813,1.299l-0.757,3.293
		C404.618,653.319,404.037,653.684,403.454,653.549"/>
	<path class="st21" d="M413.698,655.906l-7-1.61c-0.583-0.134-0.947-0.716-0.813-1.299l0.757-3.293
		c0.134-0.583,0.716-0.947,1.299-0.813l6.999,1.61c0.583,0.134,0.947,0.716,0.813,1.299l-0.757,3.293
		C414.862,655.676,414.281,656.04,413.698,655.906"/>
	<path class="st21" d="M424.041,658.285l-7-1.61c-0.583-0.134-0.947-0.716-0.812-1.299l0.757-3.293
		c0.134-0.583,0.716-0.947,1.299-0.813l6.999,1.61c0.583,0.135,0.947,0.716,0.813,1.299l-0.757,3.293
		C425.204,658.055,424.623,658.419,424.041,658.285"/>
	<path class="st21" d="M434.284,660.642l-7-1.61c-0.583-0.134-0.947-0.716-0.812-1.299l0.757-3.293
		c0.134-0.583,0.716-0.947,1.299-0.813l6.999,1.609c0.583,0.134,0.947,0.716,0.813,1.299l-0.757,3.293
		C435.448,660.411,434.867,660.775,434.284,660.642"/>
	<path class="st21" d="M444.626,663.021l-7-1.609c-0.583-0.135-0.947-0.717-0.812-1.3l0.757-3.293
		c0.134-0.583,0.716-0.946,1.299-0.813l6.999,1.609c0.583,0.136,0.947,0.717,0.813,1.3l-0.757,3.293
		C445.791,662.791,445.209,663.154,444.626,663.021"/>
	<path class="st21" d="M454.871,665.377l-7-1.609c-0.583-0.134-0.947-0.716-0.812-1.299l0.757-3.293
		c0.134-0.583,0.716-0.947,1.299-0.813l6.999,1.61c0.583,0.134,0.947,0.716,0.813,1.299l-0.757,3.293
		C456.034,665.147,455.453,665.512,454.871,665.377"/>
	<path class="st21" d="M465.114,667.733l-7-1.609c-0.583-0.134-0.947-0.716-0.812-1.299l0.757-3.293
		c0.134-0.583,0.716-0.947,1.299-0.813l6.999,1.61c0.583,0.135,0.947,0.716,0.813,1.299l-0.757,3.293
		C466.278,667.504,465.697,667.868,465.114,667.733"/>
	<path class="st21" d="M475.432,670.107l-7-1.61c-0.583-0.134-0.947-0.716-0.812-1.299l0.757-3.293
		c0.134-0.583,0.716-0.947,1.299-0.813l6.999,1.609c0.583,0.134,0.947,0.716,0.813,1.299l-0.757,3.293
		C476.596,669.877,476.015,670.241,475.432,670.107"/>
	<path class="st21" d="M485.799,672.492l-7-1.61c-0.583-0.134-0.947-0.716-0.812-1.299l0.757-3.293
		c0.134-0.583,0.716-0.947,1.299-0.813l6.999,1.609c0.583,0.136,0.947,0.716,0.813,1.299l-0.757,3.293
		C486.963,672.262,486.382,672.626,485.799,672.492"/>
	<path class="st21" d="M496.073,674.855l-7-1.609c-0.583-0.135-0.947-0.717-0.812-1.299l0.757-3.293
		c0.134-0.584,0.716-0.947,1.299-0.813l6.999,1.61c0.583,0.134,0.947,0.716,0.813,1.299l-0.757,3.293
		C497.237,674.626,496.656,674.99,496.073,674.855"/>
	<path class="st21" d="M506.385,677.228l-7-1.609c-0.583-0.135-0.947-0.717-0.812-1.3l0.757-3.293
		c0.134-0.583,0.716-0.946,1.299-0.813l6.999,1.61c0.583,0.135,0.947,0.716,0.813,1.299l-0.757,3.293
		C507.55,676.998,506.968,677.361,506.385,677.228"/>
	<path class="st21" d="M516.575,679.572l-7-1.61c-0.583-0.134-0.947-0.716-0.812-1.299l0.757-3.293
		c0.134-0.583,0.716-0.947,1.299-0.813l6.999,1.61c0.583,0.135,0.947,0.716,0.813,1.299l-0.757,3.293
		C517.739,679.342,517.158,679.706,516.575,679.572"/>
	
		<rect x="373.614" y="554.193" transform="matrix(0.9738 0.2275 -0.2275 0.9738 136.9313 -74.1101)" class="st39" width="32.673" height="5.501"/>
	
		<rect x="374.138" y="564.207" transform="matrix(0.9738 0.2275 -0.2275 0.9738 139.1073 -72.9227)" class="st46" width="23.479" height="5.502"/>
	
		<rect x="441.512" y="583.444" transform="matrix(0.9738 0.2275 -0.2275 0.9738 145.6337 -91.1464)" class="st39" width="53.407" height="5.501"/>
	
		<rect x="413.921" y="583.923" transform="matrix(0.9738 0.2275 -0.2275 0.9738 144.6676 -81.8889)" class="st5" width="27.35" height="5.502"/>
	
		<rect x="480.537" y="612.487" transform="matrix(0.9738 0.2275 -0.2275 0.9738 153.1734 -98.5263)" class="st56" width="46.959" height="5.501"/>
	
		<rect x="373.08" y="598.706" transform="matrix(0.9738 0.2275 -0.2275 0.9738 147.4592 -76.4127)" class="st40" width="64.242" height="5.501"/>
	<g id="group2lines" class="st81">
		
			<rect x="410.022" y="563.353" transform="matrix(0.9738 0.2275 -0.2275 0.9738 140.0352 -82.7859)" class="st37" width="38.27" height="5.501"/>
		
			<rect x="374.172" y="575.032" transform="matrix(0.9738 0.2275 -0.2275 0.9738 141.6484 -73.4644)" class="st50" width="30.726" height="5.501"/>
		
			<rect x="372.883" y="586.248" transform="matrix(0.9738 0.2275 -0.2275 0.9738 144.2774 -73.6718)" class="st50" width="37.646" height="5.502"/>
		
			<rect x="443.354" y="618.863" transform="matrix(0.9738 0.2275 -0.2275 0.9738 153.3382 -87.0988)" class="st50" width="22.278" height="5.501"/>
		
			<rect x="372.339" y="614.127" transform="matrix(0.9738 0.2275 -0.2275 0.9738 150.7096 -73.8698)" class="st50" width="46.959" height="5.501"/>
	</g>
	
		<rect x="470.755" y="624.742" transform="matrix(0.9738 0.2275 -0.2275 0.9738 155.3137 -92.6609)" class="st72" width="17.816" height="5.502"/>
	<g id="group1lines" class="st81">
		
			<rect x="455.861" y="575.077" transform="matrix(0.9738 0.2275 -0.2275 0.9738 144.0228 -93.8971)" class="st29" width="46.959" height="5.501"/>
		
			<rect x="406.353" y="572.124" transform="matrix(0.9738 0.2275 -0.2275 0.9738 141.8015 -80.4259)" class="st28" width="26.816" height="5.501"/>
		
			<rect x="415.53" y="594.08" transform="matrix(0.9738 0.2275 -0.2275 0.9738 146.9548 -81.0989)" class="st53" width="19.386" height="5.5"/>
		
			<rect x="440.911" y="602.092" transform="matrix(0.9738 0.2275 -0.2275 0.9738 149.6568 -88.6834)" class="st50" width="37.22" height="5.501"/>
		
			<rect x="424.924" y="626.412" transform="matrix(0.9738 0.2275 -0.2275 0.9738 154.8829 -85.51)" class="st58" width="46.959" height="5.502"/>
		
			<rect x="371.185" y="606.726" transform="matrix(0.9738 0.2275 -0.2275 0.9738 149.2132 -75.5981)" class="st14" width="62.72" height="5.501"/>
	</g>
</g>
<g>
	<defs>
		<rect id="SVGID_11_" width="1242" height="1242"/>
	</defs>
	<clipPath id="SVGID_12_">
		<use xlink:href="#SVGID_11_"  style="overflow:visible;"/>
	</clipPath>
	<path class="st61" d="M446.474,449.179c15.353,13.961,16.481,37.725,2.519,53.078c-13.961,15.353-37.725,16.48-53.078,2.519
		c-15.352-13.961-16.48-37.725-2.519-53.078C407.358,436.346,431.121,435.218,446.474,449.179"/>
	<path class="st41" d="M443.278,452.693c-13.412-12.196-34.171-11.211-46.368,2.201c-12.196,13.412-11.211,34.171,2.201,46.368
		c13.412,12.196,34.171,11.211,46.368-2.201C457.675,485.649,456.69,464.889,443.278,452.693"/>
	<circle class="st76" cx="421.195" cy="476.978" r="32.824"/>
	<g id="ice_x5F_cubes" class="st82">
		<path class="st51" d="M400.53,478.295l6.613,8.569c0.674,0.874,2.023,0.774,2.561-0.19l5.911-10.588
			c0.627-1.122-0.319-2.473-1.588-2.269l-12.524,2.019C400.352,476.022,399.817,477.371,400.53,478.295"/>
		<path class="st51" d="M439.076,492.304l-1.052-10.773c-0.107-1.099-1.303-1.73-2.271-1.199l-10.631,5.831
			c-1.128,0.619-1.044,2.266,0.14,2.766l11.683,4.942C438.021,494.325,439.189,493.465,439.076,492.304"/>
		<path class="st51" d="M438.548,463.254l-7.212-8.071c-0.735-0.824-2.073-0.627-2.541,0.373l-5.134,10.986
			c-0.544,1.165,0.496,2.444,1.747,2.149l12.346-2.914C438.889,465.509,439.325,464.124,438.548,463.254"/>
	</g>
	<path class="st22" d="M424.358,411.736l-2.538,45.256c-0.088,1.563-1.425,2.758-2.988,2.671c-1.562-0.088-2.758-1.426-2.67-2.988
		l2.538-45.256c0.088-1.563,1.425-2.758,2.988-2.671C423.25,408.836,424.447,410.174,424.358,411.736"/>
	<path class="st22" d="M423.143,409.856c-0.98-0.891-2.497-0.819-3.388,0.161c-0.891,0.98-0.819,2.497,0.161,3.388
		c0.98,0.891,2.497,0.819,3.388-0.161S424.123,410.747,423.143,409.856"/>
	<circle class="st55" cx="421.53" cy="411.631" r="2.399"/>
</g>
<g>
	<defs>
		<rect id="SVGID_13_" width="1242" height="1242"/>
	</defs>
	<clipPath id="SVGID_14_">
		<use xlink:href="#SVGID_13_"  style="overflow:visible;"/>
	</clipPath>
	<path class="st13" d="M760.821,906.345l-68.603,7.665c-2.018,0.226-3.837-1.227-4.062-3.246l-10.427-93.302
		c-0.225-2.019,1.229-3.837,3.246-4.063l68.603-7.666c2.018-0.225,3.837,1.229,4.063,3.246l10.425,93.303
		C764.292,904.301,762.839,906.119,760.821,906.345"/>
	<path class="st70" d="M756.646,901.933l-61.33,6.853c-2.019,0.226-3.838-1.228-4.063-3.246l-9.35-83.665
		c-0.225-2.018,1.229-3.837,3.246-4.062l61.331-6.854c2.019-0.226,3.837,1.229,4.063,3.246l9.349,83.664
		C760.117,899.889,758.665,901.706,756.646,901.933"/>
</g>
<g>
	<defs>
		<rect id="SVGID_15_" width="1242" height="1242"/>
	</defs>
	<clipPath id="SVGID_16_">
		<use xlink:href="#SVGID_15_"  style="overflow:visible;"/>
	</clipPath>
	<path class="st24" d="M800.602,494.991l-66.848-17.216c-1.966-0.506-3.15-2.511-2.644-4.478l23.414-90.916
		c0.507-1.966,2.511-3.15,4.479-2.643l66.847,17.215c1.967,0.507,3.151,2.512,2.645,4.478l-23.414,90.916
		C804.572,494.314,802.568,495.497,800.602,494.991"/>
	<path class="st3" d="M798.269,489.383l-59.763-15.391c-1.967-0.507-3.149-2.511-2.644-4.478l20.996-81.525
		c0.506-1.967,2.511-3.15,4.478-2.644l59.763,15.391c1.966,0.507,3.149,2.512,2.644,4.478l-20.996,81.525
		C802.239,488.706,800.235,489.889,798.269,489.383"/>
	<line class="st3" x1="759.637" y1="472.021" x2="773.946" y2="414.689"/>
	<line class="st85" x1="759.637" y1="472.021" x2="773.946" y2="414.689"/>
	<line class="st3" x1="767.861" y1="474.177" x2="784.617" y2="411.918"/>
	<line class="st85" x1="767.861" y1="474.177" x2="784.617" y2="411.918"/>
	<line class="st3" x1="776.75" y1="476.761" x2="785.544" y2="441.528"/>
	<line class="st85" x1="776.75" y1="476.761" x2="785.544" y2="441.528"/>
	<line class="st3" x1="784.618" y1="478.853" x2="803.009" y2="405.169"/>
	<line class="st85" x1="784.618" y1="478.853" x2="803.009" y2="405.169"/>
	<line class="st3" x1="793.353" y1="480.822" x2="806.566" y2="427.879"/>
	<line class="st85" x1="793.353" y1="480.822" x2="806.566" y2="427.879"/>
</g>
<polyline class="st51" points="697.5,902.75 753.25,896.5 744.75,820.438 "/>
<polyline class="st68" points="697.5,902.75 753.25,896.5 744.75,820.438 "/>
<g>
	<defs>
		<rect id="SVGID_17_" width="1242" height="1242"/>
	</defs>
	<clipPath id="SVGID_18_">
		<use xlink:href="#SVGID_17_"  style="overflow:visible;"/>
	</clipPath>
	<path class="st6" d="M739.91,890.667c-1.91-1.333-23.91-9-23.91-9L725.375,871l-14.041-5l17.332-12l-7.768-4.333l4.477-7.333
		L697.5,833l10.834-10.333"/>
	<path class="st60" d="M739.91,890.667c-1.91-1.333-23.91-9-23.91-9L725.375,871l-14.041-5l17.332-12l-7.768-4.333l4.477-7.333
		L697.5,833l10.834-10.333"/>
	<line class="st12" x1="748.598" y1="468.584" x2="766.791" y2="397.764"/>
	<line class="st74" x1="748.598" y1="468.584" x2="766.791" y2="397.764"/>
</g>
<g>
	<defs>
		<rect id="SVGID_19_" width="1242" height="1242"/>
	</defs>
	<clipPath id="SVGID_20_">
		<use xlink:href="#SVGID_19_"  style="overflow:visible;"/>
	</clipPath>
	
		<ellipse transform="matrix(0.7789 -0.6272 0.6272 0.7789 -185.3782 730.9834)" class="st23" cx="943.932" cy="628.38" rx="11.767" ry="6.432"/>
	
		<ellipse transform="matrix(0.7789 -0.6272 0.6272 0.7789 -168.4453 741.4719)" class="st23" cx="967.246" cy="609.605" rx="11.767" ry="6.433"/>
	<line class="st23" x1="953.097" y1="621" x2="958.081" y2="616.986"/>
	<line class="st23" x1="934.767" y1="635.761" x2="908.895" y2="603.632"/>
	<line class="st23" x1="976.41" y1="602.225" x2="950.538" y2="570.097"/>
</g>
</svg>
