<?xml version="1.0" encoding="utf-8"?>
<!-- Generator: Adobe Illustrator 19.0.0, SVG Export Plug-In . SVG Version: 6.00 Build 0)  -->
<svg version="1.1" xmlns="http://www.w3.org/2000/svg" xmlns:xlink="http://www.w3.org/1999/xlink" x="0px" y="0px"
	 viewBox="0 0 1000 1000" style="enable-background:new 0 0 1000 1000;" xml:space="preserve">
<style type="text/css">
	.st0{display:none;}
	.st1{display:inline;fill:#161616;}
	.st2{display:none;fill:#E14029;}
	.st3{fill:url(#XMLID_40_);}
	.st4{fill:url(#XMLID_41_);}
	.st5{display:none;opacity:0.81;fill:#F6E425;}
	.st6{fill:url(#XMLID_42_);}
	.st7{fill:url(#XMLID_43_);}
	.st8{fill:#E14029;}
	.st9{display:inline;fill:url(#XMLID_44_);}
	.st10{display:inline;fill:url(#XMLID_45_);}
	.st11{display:inline;fill:url(#XMLID_46_);}
	.st12{display:inline;fill:url(#XMLID_47_);}
	.st13{display:inline;fill:url(#XMLID_48_);}
	.st14{display:inline;fill:url(#XMLID_49_);}
	.st15{display:inline;fill:url(#XMLID_50_);}
	.st16{display:inline;fill:url(#XMLID_51_);}
	.st17{fill:url(#XMLID_52_);}
	.st18{fill:url(#XMLID_53_);}
	.st19{fill:url(#XMLID_54_);}
	.st20{fill:url(#XMLID_55_);}
	.st21{fill:url(#XMLID_56_);}
	.st22{fill:url(#XMLID_57_);}
	.st23{fill:url(#XMLID_58_);}
	.st24{fill:url(#XMLID_59_);}
	.st25{display:inline;opacity:0.81;fill:#F6E425;}
	.st26{opacity:0.85;}
	.st27{fill:url(#XMLID_60_);}
	.st28{fill:url(#XMLID_61_);}
	.st29{fill:url(#XMLID_62_);}
	.st30{fill:url(#XMLID_63_);}
	.st31{display:none;opacity:0.46;fill:url(#XMLID_64_);}
	.st32{fill:url(#XMLID_65_);}
</style>
<g id="Layer_6" class="st0">
	<rect id="XMLID_38_" class="st1" width="1000" height="1000"/>
</g>
<g id="Layer_1">
	<path id="XMLID_5_" class="st2" d="M136.5,516.7c42.9-6.1,145.2-13.1,299.7,131.1C548.6,771,660.7,899.1,723.4,924.5
		c-54.3-115.9-313.3-377.3-615.1-309.1c78.3-31.3,257.9-25.8,399.6,74.2c157.6,96.6,228.9,173.4,254,261.9
		c-82.2,7-289.8-247.5-304.7-265.5S317.7,516.7,136.5,516.7z"/>
	<linearGradient id="XMLID_40_" gradientUnits="userSpaceOnUse" x1="107.3984" y1="542.7936" x2="797.468" y2="913.2289">
		<stop  offset="0" style="stop-color:#4860AC"/>
		<stop  offset="1" style="stop-color:#2B8D74"/>
		<stop  offset="1" style="stop-color:#F3F4F4"/>
	</linearGradient>
	<path id="XMLID_36_" class="st3" d="M460.8,674.7c103.9,114.4,204.5,226.2,262.7,249.8c-54.3-115.9-313.3-377.3-615.1-309.1
		c78.3-31.3,257.9-25.8,399.6,74.2c157.6,96.6,228.9,173.4,254,261.9c-82.2,7-289.8-247.5-304.7-265.5c-2.6-3.1-8.5-10.3-17.4-20
		C449.2,669.1,452.6,671.6,460.8,674.7z"/>
	<linearGradient id="XMLID_41_" gradientUnits="userSpaceOnUse" x1="186.1619" y1="506.5935" x2="760.813" y2="917.1085">
		<stop  offset="0" style="stop-color:#4860AC"/>
		<stop  offset="1" style="stop-color:#2B8D74"/>
		<stop  offset="1" style="stop-color:#F3F4F4"/>
	</linearGradient>
	<path id="XMLID_37_" class="st4" d="M136.5,516.7c41.9-6,140.5-12.7,289.2,121.4c-9.3-3.6-10.3-3.6-21.7-7.4
		C348.7,581,254.6,516.7,136.5,516.7z"/>
	<path id="XMLID_3_" class="st5" d="M360.7,22.8c-107,279.7,64.4,778.9,449.9,828.6c8.5,0.5,21.3-8.5,8.1-17.3
		c-41.9-18.2,33.2-117.4-67.6-194.7c-93-61.2-223.6,8.7-234.6,11.3c21.1-14.5,331.5-101.1,296.5-297.5
		C758.2,191.7,574.2,191,528.6,162.7S438,123.6,360.7,22.8z"/>
	<linearGradient id="XMLID_42_" gradientUnits="userSpaceOnUse" x1="118.2223" y1="516.6948" x2="127.3607" y2="516.6948">
		<stop  offset="0" style="stop-color:#4860AC"/>
		<stop  offset="1" style="stop-color:#2B8D74"/>
		<stop  offset="1" style="stop-color:#F3F4F4"/>
	</linearGradient>
	<circle id="XMLID_2_" class="st6" cx="122.8" cy="516.7" r="4.6"/>
	<linearGradient id="XMLID_43_" gradientUnits="userSpaceOnUse" x1="89.6321" y1="617.3496" x2="98.5094" y2="617.3496">
		<stop  offset="0" style="stop-color:#4860AC"/>
		<stop  offset="1" style="stop-color:#2B8D74"/>
		<stop  offset="1" style="stop-color:#F3F4F4"/>
	</linearGradient>
	<circle id="XMLID_1_" class="st7" cx="94.1" cy="617.3" r="4.4"/>
	<path id="XMLID_35_" class="st2" d="M118.7,133.9c21.9,298.7,389.1,677.8,759.3,559c8-3.1,15.7-16.7,0-19.1
		c-45.7,1.3-19.8-120.4-143.9-147.5C624,510.4,535.5,629.2,526.6,636.3c13-22.1,257.2-232.4,142-395.3
		c-118.3-123-285.1-45.4-338.4-51.7S231.5,192.4,118.7,133.9z"/>
</g>
<g id="Back_Wing" class="st0">
	<path id="XMLID_4_" class="st8" d="M118.7,133.9c21.9,298.7,389.1,677.8,759.3,559c8-3.1,15.7-16.7,0-19.1
		c-45.7,1.3-19.8-120.4-143.9-147.5C624,510.4,535.5,629.2,526.6,636.3c13-22.1,257.2-232.4,142-395.3
		c-118.3-123-285.1-45.4-338.4-51.7S231.5,192.4,118.7,133.9z"/>
	<linearGradient id="XMLID_44_" gradientUnits="userSpaceOnUse" x1="113.7584" y1="142.2369" x2="886.4232" y2="684.8101">
		<stop  offset="0" style="stop-color:#25B788"/>
		<stop  offset="1" style="stop-color:#245172"/>
		<stop  offset="1" style="stop-color:#F3F4F4"/>
	</linearGradient>
	<path id="XMLID_26_" class="st9" d="M508.5,171.2c-76.7-3.4-147,21.8-178.2,18.1c-0.1,0-0.2,0-0.4,0
		c-4.3,151.1,45.3,322.3,142.8,453.2c16,9,32.4,17.3,49.1,24.8C442.4,566.9,406.3,410.8,508.5,171.2z"/>
	<linearGradient id="XMLID_45_" gradientUnits="userSpaceOnUse" x1="136.3774" y1="122.1533" x2="871.0573" y2="663.3854">
		<stop  offset="0" style="stop-color:#25B788"/>
		<stop  offset="1" style="stop-color:#245172"/>
		<stop  offset="1" style="stop-color:#F3F4F4"/>
	</linearGradient>
	<path id="XMLID_23_" class="st10" d="M526.6,636.3c6.7-11.3,74.1-72.1,122.8-150.7c-91.6-98-111.2-186.2-105-310.6
		c-9.8-1.7-19.7-2.8-29.4-3.5c-115.7,269.5-33.5,439.8,2.5,479c11.8-8.1,120.8-42.1,200.1-101.1c-9.2-7.7-17.9-15.3-26.2-22.8
		C601.7,540.2,534.3,630.2,526.6,636.3z"/>
	<linearGradient id="XMLID_46_" gradientUnits="userSpaceOnUse" x1="84.5982" y1="200.6056" x2="822.2403" y2="752.6478">
		<stop  offset="0" style="stop-color:#25B788"/>
		<stop  offset="1" style="stop-color:#245172"/>
		<stop  offset="1" style="stop-color:#F3F4F4"/>
	</linearGradient>
	<path id="XMLID_29_" class="st11" d="M752,638.9c-38.8-25.5-84.1-28.1-124.6-22.4c8.2,32.5,31.9,66.2,59.7,96.3
		c38,3.9,76.7,3.3,115.8-2.4C796.3,686.4,781.8,661.7,752,638.9z"/>
	<linearGradient id="XMLID_47_" gradientUnits="userSpaceOnUse" x1="20.3922" y1="269.4005" x2="806.3025" y2="797.5753">
		<stop  offset="0" style="stop-color:#25B788"/>
		<stop  offset="1" style="stop-color:#245172"/>
		<stop  offset="1" style="stop-color:#F3F4F4"/>
	</linearGradient>
	<path id="XMLID_24_" class="st12" d="M623.2,617.1c-52.2,12.8-95.1,37.5-101.4,39c4.2,5.6,9.2,11.5,14.8,17.6
		c46.7,19.5,95.6,32.9,145.8,38.6C655.2,682.4,632.5,649.7,623.2,617.1z"/>
	<linearGradient id="XMLID_48_" gradientUnits="userSpaceOnUse" x1="213.5543" y1="55.135" x2="979.1218" y2="573.6744">
		<stop  offset="0" style="stop-color:#25B788"/>
		<stop  offset="1" style="stop-color:#245172"/>
		<stop  offset="1" style="stop-color:#F3F4F4"/>
	</linearGradient>
	<path id="XMLID_27_" class="st13" d="M652.2,480.9c44.5-73.7,71.3-162.2,16.4-239.9c-36.5-37.9-77.6-56.8-118.5-64.9
		C548.5,296.3,570.9,391.5,652.2,480.9z"/>
	<linearGradient id="XMLID_49_" gradientUnits="userSpaceOnUse" x1="129.9156" y1="117.1293" x2="904.6416" y2="656.6298">
		<stop  offset="0" style="stop-color:#25B788"/>
		<stop  offset="1" style="stop-color:#245172"/>
		<stop  offset="1" style="stop-color:#F3F4F4"/>
	</linearGradient>
	<path id="XMLID_28_" class="st14" d="M734.2,526.4c-12.2-1.8-24.1-1.9-35.6-0.7c7.7,6.6,15.7,13.2,24.2,19.8
		c7-5.4,13.8-11,20.4-16.9C740.2,527.8,737.2,527,734.2,526.4z"/>
	<linearGradient id="XMLID_50_" gradientUnits="userSpaceOnUse" x1="117.7766" y1="156.0856" x2="858.7401" y2="703.874">
		<stop  offset="0" style="stop-color:#25B788"/>
		<stop  offset="1" style="stop-color:#245172"/>
		<stop  offset="1" style="stop-color:#F3F4F4"/>
	</linearGradient>
	<path id="XMLID_13_" class="st15" d="M806.1,709.9c23.9-3.7,47.9-9.3,71.9-17c8-3.1,15.7-16.7,0-19.1
		c-45,1.3-13.8-114.7-131.3-144.3C709.3,565,654,596.7,601,618.8C683.2,602.3,778.3,608.3,806.1,709.9z"/>
	<linearGradient id="XMLID_51_" gradientUnits="userSpaceOnUse" x1="72.772" y1="187.896" x2="869.3749" y2="751.1494">
		<stop  offset="0" style="stop-color:#25B788"/>
		<stop  offset="1" style="stop-color:#245172"/>
		<stop  offset="1" style="stop-color:#F3F4F4"/>
	</linearGradient>
	<path id="XMLID_12_" class="st16" d="M118.7,133.9c13,177.7,148.3,383.9,333.7,496.8C357,490.3,315.7,294.3,323,188.5
		C272.7,183.7,226.4,189.7,118.7,133.9z"/>
</g>
<g id="Back_Wing_copy">
	<linearGradient id="XMLID_52_" gradientUnits="userSpaceOnUse" x1="113.7584" y1="142.2369" x2="886.4232" y2="684.8101">
		<stop  offset="0" style="stop-color:#1C9770"/>
		<stop  offset="1" style="stop-color:#1B3E57"/>
		<stop  offset="1" style="stop-color:#F3F4F4"/>
	</linearGradient>
	<path id="XMLID_34_" class="st17" d="M508.5,171.2c-76.7-3.4-147,21.8-178.2,18.1c-0.1,0-0.2,0-0.4,0
		c-4.3,151.1,45.3,322.3,142.8,453.2c16,9,32.4,17.3,49.1,24.8C442.4,566.9,406.3,410.8,508.5,171.2z"/>
	<linearGradient id="XMLID_53_" gradientUnits="userSpaceOnUse" x1="136.3774" y1="122.1533" x2="871.0573" y2="663.3854">
		<stop  offset="0" style="stop-color:#1C9770"/>
		<stop  offset="1" style="stop-color:#1B3E57"/>
		<stop  offset="1" style="stop-color:#F3F4F4"/>
	</linearGradient>
	<path id="XMLID_33_" class="st18" d="M526.6,636.3c6.7-11.3,74.1-72.1,122.8-150.7c-91.6-98-111.2-186.2-105-310.6
		c-9.8-1.7-19.7-2.8-29.4-3.5c-115.7,269.5-33.5,439.8,2.5,479c11.8-8.1,120.8-42.1,200.1-101.1c-9.2-7.7-17.9-15.3-26.2-22.8
		C601.7,540.2,534.3,630.2,526.6,636.3z"/>
	<linearGradient id="XMLID_54_" gradientUnits="userSpaceOnUse" x1="84.5982" y1="200.6056" x2="822.2403" y2="752.6478">
		<stop  offset="0" style="stop-color:#1C9770"/>
		<stop  offset="1" style="stop-color:#1B3E57"/>
		<stop  offset="1" style="stop-color:#F3F4F4"/>
	</linearGradient>
	<path id="XMLID_32_" class="st19" d="M752,638.9c-38.8-25.5-84.1-28.1-124.6-22.4c8.2,32.5,31.9,66.2,59.7,96.3
		c38,3.9,76.7,3.3,115.8-2.4C796.3,686.4,781.8,661.7,752,638.9z"/>
	<linearGradient id="XMLID_55_" gradientUnits="userSpaceOnUse" x1="20.3922" y1="269.4005" x2="806.3025" y2="797.5753">
		<stop  offset="0" style="stop-color:#1C9770"/>
		<stop  offset="1" style="stop-color:#1B3E57"/>
		<stop  offset="1" style="stop-color:#F3F4F4"/>
	</linearGradient>
	<path id="XMLID_31_" class="st20" d="M623.2,617.1c-52.2,12.8-95.1,37.5-101.4,39c4.2,5.6,9.2,11.5,14.8,17.6
		c46.7,19.5,95.6,32.9,145.8,38.6C655.2,682.4,632.5,649.7,623.2,617.1z"/>
	<linearGradient id="XMLID_56_" gradientUnits="userSpaceOnUse" x1="213.5543" y1="55.135" x2="979.1218" y2="573.6744">
		<stop  offset="0" style="stop-color:#1C9770"/>
		<stop  offset="1" style="stop-color:#1B3E57"/>
		<stop  offset="1" style="stop-color:#F3F4F4"/>
	</linearGradient>
	<path id="XMLID_30_" class="st21" d="M652.2,480.9c44.5-73.7,71.3-162.2,16.4-239.9c-36.5-37.9-77.6-56.8-118.5-64.9
		C548.5,296.3,570.9,391.5,652.2,480.9z"/>
	<linearGradient id="XMLID_57_" gradientUnits="userSpaceOnUse" x1="129.9156" y1="117.1293" x2="904.6416" y2="656.6298">
		<stop  offset="0" style="stop-color:#1C9770"/>
		<stop  offset="1" style="stop-color:#1B3E57"/>
		<stop  offset="1" style="stop-color:#F3F4F4"/>
	</linearGradient>
	<path id="XMLID_25_" class="st22" d="M734.2,526.4c-12.2-1.8-24.1-1.9-35.6-0.7c7.7,6.6,15.7,13.2,24.2,19.8
		c7-5.4,13.8-11,20.4-16.9C740.2,527.8,737.2,527,734.2,526.4z"/>
	<linearGradient id="XMLID_58_" gradientUnits="userSpaceOnUse" x1="117.7766" y1="156.0856" x2="858.7401" y2="703.874">
		<stop  offset="0" style="stop-color:#1C9770"/>
		<stop  offset="1" style="stop-color:#1B3E57"/>
		<stop  offset="1" style="stop-color:#F3F4F4"/>
	</linearGradient>
	<path id="XMLID_22_" class="st23" d="M806.1,709.9c23.9-3.7,47.9-9.3,71.9-17c8-3.1,15.7-16.7,0-19.1
		c-45,1.3-13.8-114.7-131.3-144.3C709.3,565,654,596.7,601,618.8C683.2,602.3,778.3,608.3,806.1,709.9z"/>
	<linearGradient id="XMLID_59_" gradientUnits="userSpaceOnUse" x1="72.772" y1="187.896" x2="869.3749" y2="751.1494">
		<stop  offset="0" style="stop-color:#1C9770"/>
		<stop  offset="1" style="stop-color:#1B3E57"/>
		<stop  offset="1" style="stop-color:#F3F4F4"/>
	</linearGradient>
	<path id="XMLID_21_" class="st24" d="M118.7,133.9c13,177.7,148.3,383.9,333.7,496.8C357,490.3,315.7,294.3,323,188.5
		C272.7,183.7,226.4,189.7,118.7,133.9z"/>
</g>
<g id="Front_wing" class="st0">
	<path id="XMLID_6_" class="st25" d="M360.7,22.8c-107,279.7,64.4,778.9,449.9,828.6c8.5,0.5,21.3-8.5,8.1-17.3
		c-41.9-18.2,33.2-117.4-67.6-194.7c-93-61.2-223.6,8.7-234.6,11.3c21.1-14.5,331.5-101.1,296.5-297.5
		C758.2,191.7,574.2,191,528.6,162.7S438,123.6,360.7,22.8z"/>
	<path id="XMLID_11_" class="st25" d="M500,678c78.4,91,182.7,156.9,310.6,173.4c8.5,0.5,21.3-8.5,8.1-17.3
		c-23.7-10.3-10-46.6-11.8-90.1C731,810.5,601,658,500,678z"/>
	<path id="XMLID_10_" class="st25" d="M494.8,671.9C607,654,747.5,813.5,806.1,733C778,547,541.5,631.5,494.8,671.9z"/>
	<path id="XMLID_9_" class="st25" d="M479.8,652c2.4-0.8,6.2,18.6,13.3,16.3c65-45.3,351.9-136.5,320-315
		c-24.5-72.1-74.6-112.1-126.7-136.9C613.2,351.8,530.8,488,479.8,652z"/>
	<path id="XMLID_8_" class="st25" d="M339.1,323.7c12.3,80.3,68,249.8,136.5,324.1C517.4,463.4,640,298,676.2,211.7
		c-32.1-14-64.4-22.7-91.3-29.9C529,275,383.7,167.3,339.1,323.7z"/>
	<path id="XMLID_7_" class="st25" d="M360.7,22.8c-31.7,82.9-39,185-23.5,289.1c34.5-147.5,195.8-50.2,239.7-132.2
		c-21-5.7-38.1-10.6-48.2-16.9C483.1,134.4,438,123.6,360.7,22.8z"/>
	
		<image style="display:inline;overflow:visible;" width="720" height="1280" id="XMLID_14_" xlink:href="wallsmall.jpg"  transform="matrix(1.0975 0 0 1.0975 -939.7 -271.8)">
	</image>
</g>
<g id="Front_WIng_2" class="st26">
	
		<linearGradient id="XMLID_60_" gradientUnits="userSpaceOnUse" x1="339.5936" y1="95.6" x2="964.9156" y2="542.0811" gradientTransform="matrix(0.9059 0.4234 -0.4234 0.9059 43.5718 -150.5809)">
		<stop  offset="0" style="stop-color:#25B788"/>
		<stop  offset="1" style="stop-color:#245172"/>
		<stop  offset="1" style="stop-color:#F3F4F4"/>
	</linearGradient>
	<path id="XMLID_20_" class="st27" d="M360.7,22.8c-106.6,279.9,65.5,778.8,451.1,827.9c8.5,0.5,21.3-8.5,8.1-17.3
		c-119-19.8-537.6-153.6-304.8-677.5C469.5,127.6,438.1,123.5,360.7,22.8z"/>
	
		<linearGradient id="XMLID_61_" gradientUnits="userSpaceOnUse" x1="336.2578" y1="58.7508" x2="1114.0768" y2="614.1149" gradientTransform="matrix(0.9059 0.4234 -0.4234 0.9059 43.5718 -150.5809)">
		<stop  offset="0" style="stop-color:#25B788"/>
		<stop  offset="1" style="stop-color:#245172"/>
		<stop  offset="1" style="stop-color:#F3F4F4"/>
	</linearGradient>
	<path id="XMLID_18_" class="st28" d="M517.4,650.6c11.8-8.1,120.8-42.1,200.1-101.1c-152.1-127.7-181.4-226-172.9-379.8
		c-4.2-1.5-21.3-8.2-24.6-9.8C396.9,436.2,480.9,610.8,517.4,650.6z"/>
	
		<linearGradient id="XMLID_62_" gradientUnits="userSpaceOnUse" x1="439.4934" y1="-77.5876" x2="1183.3301" y2="453.5132" gradientTransform="matrix(0.9059 0.4234 -0.4234 0.9059 43.5718 -150.5809)">
		<stop  offset="0" style="stop-color:#25B788"/>
		<stop  offset="1" style="stop-color:#245172"/>
		<stop  offset="1" style="stop-color:#F3F4F4"/>
	</linearGradient>
	<path id="XMLID_16_" class="st29" d="M722.7,545.5c59.6-45.9,105.9-109.1,90.8-192.9C764.9,210,615.8,193,550.1,171.5
		C547.4,323.4,581.9,435.4,722.7,545.5z"/>
	
		<linearGradient id="XMLID_63_" gradientUnits="userSpaceOnUse" x1="310.5213" y1="93.2392" x2="1097.0298" y2="654.8078" gradientTransform="matrix(0.9059 0.4234 -0.4234 0.9059 43.5718 -150.5809)">
		<stop  offset="0" style="stop-color:#25B788"/>
		<stop  offset="1" style="stop-color:#245172"/>
		<stop  offset="1" style="stop-color:#F3F4F4"/>
	</linearGradient>
	<path id="XMLID_15_" class="st30" d="M808.1,820.5C759.1,785,646.9,700.4,623.2,617.1c-52.2,12.8-95.1,37.5-101.4,39
		C568.3,717.9,700.3,809.5,808.1,820.5z"/>
	
		<linearGradient id="XMLID_64_" gradientUnits="userSpaceOnUse" x1="388.2047" y1="27.5174" x2="1013.5267" y2="473.9985" gradientTransform="matrix(0.9059 0.4234 -0.4234 0.9059 43.5718 -150.5809)">
		<stop  offset="0" style="stop-color:#25B788"/>
		<stop  offset="1" style="stop-color:#245172"/>
		<stop  offset="1" style="stop-color:#F3F4F4"/>
	</linearGradient>
	<path id="XMLID_17_" class="st31" d="M360.7,22.8c-106.6,279.9,65.5,778.8,451.1,827.9c8.5,0.5,21.3-8.5,8.1-17.3
		c-41.9-18.2,33-117.4-67.9-194.6c-93.1-61.1-223.6,9.1-234.6,11.7c21.1-14.5,331.4-101.6,296.1-298
		c-55.1-161.5-239.1-161.9-284.7-190.1C483.2,134.2,438.1,123.5,360.7,22.8z"/>
	
		<linearGradient id="XMLID_65_" gradientUnits="userSpaceOnUse" x1="362.637" y1="32.2333" x2="1124.7737" y2="576.4004" gradientTransform="matrix(0.9059 0.4234 -0.4234 0.9059 43.5718 -150.5809)">
		<stop  offset="0" style="stop-color:#25B788"/>
		<stop  offset="1" style="stop-color:#245172"/>
		<stop  offset="1" style="stop-color:#F3F4F4"/>
	</linearGradient>
	<path id="XMLID_19_" class="st32" d="M805.9,809.2c-2.8-38.5,23.7-111-53.9-170.3c-38.8-25.5-84.1-28.1-124.6-22.4
		C648.8,701.3,776.1,794.7,805.9,809.2z"/>
</g>
</svg>
